<?xml version="1.0" encoding="UTF-8" standalone="no"?>
<svg
   version="1.1"
   width="400"
   height="400"
   viewBox="0 0 400 400"
   id="svg20"
   sodipodi:docname="SleepIcon (3).svg"
   inkscape:version="1.4.2 (f4327f4, 2025-05-13)"
   xmlns:inkscape="http://www.inkscape.org/namespaces/inkscape"
   xmlns:sodipodi="http://sodipodi.sourceforge.net/DTD/sodipodi-0.dtd"
   xmlns="http://www.w3.org/2000/svg"
   xmlns:svg="http://www.w3.org/2000/svg">
  <sodipodi:namedview
     id="namedview20"
     pagecolor="#ffffff"
     bordercolor="#000000"
     borderopacity="0.25"
     inkscape:showpageshadow="2"
     inkscape:pageopacity="0.0"
     inkscape:pagecheckerboard="0"
     inkscape:deskcolor="#d1d1d1"
     inkscape:zoom="1.9325"
     inkscape:cx="161.19017"
     inkscape:cy="200"
     inkscape:window-width="1920"
     inkscape:window-height="991"
     inkscape:window-x="-9"
     inkscape:window-y="-9"
     inkscape:window-maximized="1"
     inkscape:current-layer="svg20" />
  <defs
     id="defs1">
    <filter
       style="color-interpolation-filters:sRGB"
       id="filter22"
       inkscape:label="filter1"
       x="-0.18"
       y="-0.24"
       width="1.36"
       height="1.48">
      <feGaussianBlur
         stdDeviation="3 4"
         id="feGaussianBlur22"
         result="result1" />
      <feMerge
         id="feMerge23">
        <feMergeNode
           inkscape:collect="always"
           id="feMergeNode23"
           in="SourceGraphic" />
        <feMergeNode
           inkscape:collect="always"
           id="feMergeNode24"
           in="result1" />
      </feMerge>
    </filter>
    <filter
       style="color-interpolation-filters:sRGB"
       id="filter23"
       inkscape:label="filter2" />
  </defs>
  <g
     id="g20">
    <path
       fill="none"
       stroke="none"
       id="path1" />
    <path
       fill="rgb(34,102,170)"
       stroke="none"
       paint-order="stroke fill markers"
       d=" M 100 0 L 300 0 L 300 0 A 100 100 0 0 1 400 100 L 400 350 L 400 350 A 50 50 0 0 1 350 400 L 50 400 L 50 400 A 50 50 0 0 1 0 350 L 0 100 L 0 100.00000000000001 A 100 100 0 0 1 100 0 Z"
       fill-opacity="1"
       id="path2" />
    <path
       fill="rgb(39,109,186)"
       stroke="none"
       paint-order="stroke fill markers"
       d=" M 30 120 C 30 70.294372518 70.294372518 30 120 30 C 169.705627482 30 210 70.294372518 210 120 C 210 169.705627482 169.705627482 210 120 210 C 70.294372518 210 30 169.705627482 30 120"
       fill-opacity="1"
       id="path3"
       style="filter:url(#filter22)" />
    <path
       fill="rgb(44,115,201)"
       stroke="none"
       paint-order="stroke fill markers"
       d=" M 45 120 C 45 78.57864376500001 78.57864376500001 45 120 45 C 161.421356235 45 195 78.57864376500001 195 120 C 195 161.421356235 161.421356235 195 120 195 C 78.57864376500001 195 45 161.421356235 45 120"
       fill-opacity="1"
       id="path4"
       style="filter:url(#filter22)" />
    <g
       id="g5">
      <path
         fill="rgb(253,236,119)"
         stroke="none"
         paint-order="stroke fill markers"
         d=" M 134.7237994193538 55.24500227273083 C 28.17104317185236 44.63792274721855 44.63792274721855 211.82895682814762 159.63430530967537 165.33345169540303 C 98.36245412575887 150.26659228489575 92.87349426730347 94.53624759125272 134.7237994193538 55.24500227273083 L 134.7237994193538 55.24500227273083 L 134.7237994193538 55.24500227273083 Z"
         fill-opacity="1"
         id="path5"
         style="filter:url(#filter22)" />
    </g>
    <path
       fill="rgb(255,255,255)"
       stroke="none"
       paint-order="stroke fill markers"
       d=" M 234 32 L 239 47 L 254 52 L 239 57 L 234 72 L 229 57 L 214 52 L 229 47 L 234 32 L 234 32 Z"
       fill-opacity="1"
       id="path6"
       style="filter:url(#filter22)" />
    <path
       fill="rgb(255,255,255)"
       stroke="none"
       paint-order="stroke fill markers"
       d=" M 284 15 L 289 30 L 304 35 L 289 40 L 284 55 L 279 40 L 264 35 L 279 30 L 284 15 L 284 15 Z"
       fill-opacity="1"
       id="path7"
       style="filter:url(#filter22)" />
    <path
       fill="rgb(255,255,255)"
       stroke="none"
       paint-order="stroke fill markers"
       d=" M 334 50 L 339 65 L 354 70 L 339 75 L 334 90 L 329 75 L 314 70 L 329 65 L 334 50 L 334 50 Z"
       fill-opacity="1"
       id="path8"
       style="filter:url(#filter22)" />
    <path
       fill="none"
       stroke="none"
       id="path9" />
    <path
       fill="rgb(14,62,111)"
       stroke="none"
       paint-order="stroke fill markers"
       d=" M 0 350 L 400 350 L 400 375 L 400 375 A 25 25 0 0 1 375 400 L 25 400 L 25 400 A 25 25 0 0 1 0 375 L 0 350 Z"
       fill-opacity="1"
       id="path10" />
    <path
       fill="none"
       stroke="none"
       id="path11" />
    <path
       fill="rgb(14,62,111)"
       stroke="none"
       paint-order="stroke fill markers"
       d=" M 40 310 L 72 310 L 72 310 A 5 5 0 0 1 77 315 L 77 350 L 35 350 L 35 315 L 35 315 A 5 5 0 0 1 40 310 Z"
       fill-opacity="1"
       id="path12" />
    <path
       fill="none"
       stroke="none"
       id="path13" />
    <path
       fill="rgb(14,62,111)"
       stroke="none"
       paint-order="stroke fill markers"
       d=" M 112 270 L 144 270 L 144 270 A 5 5 0 0 1 149 275 L 149 350 L 107 350 L 107 275 L 107 275 A 5 5 0 0 1 112 270 Z"
       fill-opacity="1"
       id="path14" />
    <path
       fill="none"
       stroke="none"
       id="path15" />
    <path
       fill="rgb(14,62,111)"
       stroke="none"
       paint-order="stroke fill markers"
       d=" M 184 230 L 216 230 L 216 230 A 5 5 0 0 1 221 235 L 221 350 L 179 350 L 179 235 L 179 235 A 5 5 0 0 1 184 230 Z"
       fill-opacity="1"
       id="path16" />
    <path
       fill="none"
       stroke="none"
       id="path17" />
    <path
       fill="rgb(14,62,111)"
       stroke="none"
       paint-order="stroke fill markers"
       d=" M 256 190 L 288 190 L 288 190 A 5 5 0 0 1 293 195 L 293 350 L 251 350 L 251 195 L 251 195 A 5 5 0 0 1 256 190 Z"
       fill-opacity="1"
       id="path18" />
    <path
       fill="none"
       stroke="none"
       id="path19" />
    <path
       fill="rgb(14,62,111)"
       stroke="none"
       paint-order="stroke fill markers"
       d=" M 328 150 L 360 150 L 360 150 A 5 5 0 0 1 365 155 L 365 350 L 323 350 L 323 155 L 323 155 A 5 5 0 0 1 328 150 Z"
       fill-opacity="1"
       id="path20" />
  </g>
</svg>
