<svg version="1.1" xmlns="http://www.w3.org/2000/svg" xmlns:xlink="http://www.w3.org/1999/xlink" width="280" height="280" viewBox="0 0 280 280"><defs></defs><g><g><g><path fill="rgb(0,143,92)" stroke="none" paint-order="stroke fill markers" d=" M 111 200 L 109.41183101420721 199.9861402592316 L 107.82414580007242 199.94456525873773 L 106.23742798189211 199.8752876626662 L 104.6521608892846 199.778328573644 L 103.0688274099631 199.65371752634883 L 101.48790984264353 199.5014924785129 L 99.90988975013158 199.32169979936032 L 98.33524781263405 199.11439425548292 L 96.764463681339 198.87963899415752 L 95.19801583230934 198.61750552411092 L 93.63638142073442 198.32807369373742 L 92.0800361355839 198.01143166677633 L 90.52945405470828 197.6676758954564 L 88.98510750043023 197.29691109111567 L 87.4474668956706 196.8992501923052 L 85.91700062065308 196.474814330387 L 84.39417487023096 196.02373279263622 L 82.87945351187979 195.54614298285898 L 81.37329794439874 195.04219037953783 L 79.87616695736415 194.51202849151767 L 78.38851659137768 193.95581881124536 L 76.910799999152 193.37373076557765 L 75.44346730747608 192.76594166417206 L 73.98696548010219 192.13263664547668 L 72.54173818159636 191.47400862033516 L 71.10822564219394 190.7902582132242 L 69.68686452370125 190.08159370114146 L 68.27808778648392 189.34823095016236 L 66.88232455758333 188.59039334968503 L 65.50000000000003 187.80831174438393 L 64.13153518318506 187.00222436389222 L 62.777346954778366 186.17237675023478 L 61.43784781363254 185.31902168303358 L 60.11344578416205 184.44241910250878 L 58.8045442920548 183.54283603029825 L 57.511542041384956 182.62054648812023 L 56.2348328931636 181.67583141430364 L 54.974805745365096 180.7089785782117 L 53.73184441446481 179.72028249258437 L 52.50632751852492 178.710044323827 L 51.29862836186385 177.67857180027227 L 50.1091148213439 176.62617911844288 L 48.93814923431265 175.55318684734453 L 47.78608828823124 174.45992183081725 L 46.65328291202418 173.34671708797583 L 45.540078169182735 172.21391171176873 L 44.446813152655494 171.06185076568738 L 43.37382088155715 169.8908851786561 L 42.32142819972775 168.70137163813615 L 41.28995567617301 167.4936724814751 L 40.279717507415654 166.2681555855352 L 39.2910214217883 165.02519425463493 L 38.32416858569634 163.76516710683637 L 37.37945351187979 162.48845795861507 L 36.45716396970174 161.19545570794517 L 35.557580897491206 159.88655421583798 L 34.68097831696642 158.56215218636748 L 33.82762324976524 157.22265304522165 L 32.99777563610779 155.86846481681494 L 32.19168825561607 154.5 L 31.409606650314984 153.11767544241667 L 30.65176904983764 151.72191221351605 L 29.918406298858528 150.31313547629875 L 29.209741786775794 148.89177435780604 L 28.52599137966486 147.45826181840366 L 27.867363354523334 146.01303451989784 L 27.234058335827925 144.55653269252392 L 26.626269234422352 143.08920000084802 L 26.044181188754635 141.61148340862232 L 25.487971508482346 140.12383304263588 L 24.95780962046217 138.62670205560124 L 24.453857017141033 137.12054648812023 L 23.97626720736376 135.60582512976902 L 23.52518566961298 134.08299937934692 L 23.100749807694797 132.55253310432943 L 22.703088908884325 131.01489249956975 L 22.332324104543602 129.47054594529175 L 21.988568333223682 127.9199638644161 L 21.671926306262577 126.36361857926559 L 21.382494475889075 124.80198416769065 L 21.12036100584247 123.23553631866102 L 20.885605744517093 121.66475218736595 L 20.678300200639697 120.09011024986843 L 20.498507521487127 118.51209015735648 L 20.346282473651158 116.9311725900369 L 20.221671426355996 115.34783911071543 L 20.124712337333776 113.76257201810789 L 20.05543474126229 112.1758541999276 L 20.013859740768396 110.58816898579279 L 20 109.00000000000001 L 20.013859740768396 107.4118310142072 L 20.05543474126229 105.82414580007242 L 20.124712337333776 104.23742798189214 L 20.221671426355996 102.6521608892846 L 20.346282473651158 101.06882740996312 L 20.498507521487127 99.48790984264353 L 20.678300200639683 97.9098897501316 L 20.885605744517107 96.33524781263404 L 21.12036100584247 94.76446368133901 L 21.382494475889075 93.19801583230932 L 21.671926306262577 91.63638142073444 L 21.988568333223697 90.08003613558388 L 22.332324104543588 88.52945405470828 L 22.703088908884325 86.98510750043026 L 23.100749807694783 85.4474668956706 L 23.52518566961298 83.91700062065308 L 23.976267207363776 82.39417487023096 L 24.45385701714102 80.8794535118798 L 24.95780962046217 79.37329794439873 L 25.48797150848233 77.87616695736415 L 26.044181188754635 76.38851659137765 L 26.626269234422338 74.910799999152 L 27.234058335827925 73.44346730747611 L 27.86736335452332 71.98696548010219 L 28.525991379664845 70.54173818159637 L 29.20974178677581 69.10822564219396 L 29.918406298858528 67.68686452370125 L 30.651769049837654 66.27808778648392 L 31.409606650314984 64.88232455758333 L 32.191688255616086 63.49999999999999 L 32.997775636107775 62.13153518318507 L 33.827623249765225 60.777346954778366 L 34.68097831696642 59.43784781363254 L 35.55758089749119 58.11344578416205 L 36.45716396970175 56.8045442920548 L 37.379453511879774 55.511542041384956 L 38.324168585696356 54.2348328931636 L 39.2910214217883 52.9748057453651 L 40.279717507415654 51.731844414464774 L 41.289955676172994 50.50632751852493 L 42.321428199727734 49.298628361863855 L 43.37382088155712 48.1091148213439 L 44.44681315265548 46.93814923431265 L 45.54007816918275 45.78608828823124 L 46.65328291202417 44.65328291202418 L 47.78608828823125 43.540078169182735 L 48.938149234312625 42.446813152655494 L 50.10911482134391 41.37382088155711 L 51.29862836186384 40.32142819972775 L 52.506327518524905 39.28995567617301 L 53.73184441446476 38.27971750741568 L 54.97480574536512 37.29102142178829 L 56.234832893163606 36.324168585696356 L 57.511542041384935 35.37945351187979 L 58.80454429205478 34.45716396970177 L 60.11344578416206 33.55758089749119 L 61.437847813632544 32.68097831696642 L 62.777346954778345 31.82762324976524 L 64.13153518318504 30.997775636107804 L 65.49999999999996 30.191688255616114 L 66.88232455758335 29.40960665031497 L 68.27808778648395 28.65176904983764 L 69.68686452370123 27.918406298858528 L 71.10822564219393 27.209741786775822 L 72.54173818159637 26.525991379664845 L 73.98696548010219 25.867363354523306 L 75.44346730747608 25.23405833582794 L 76.91079999915198 24.626269234422352 L 78.38851659137764 24.04418118875465 L 79.87616695736416 23.48797150848233 L 81.37329794439874 22.95780962046217 L 82.87945351187977 22.453857017141033 L 84.39417487023093 21.97626720736379 L 85.9170006206531 21.525185669612966 L 87.44746689567063 21.100749807694783 L 88.98510750043023 20.703088908884325 L 90.52945405470825 20.332324104543602 L 92.08003613558387 19.988568333223697 L 93.63638142073444 19.671926306262577 L 95.19801583230934 19.382494475889075 L 96.76446368133898 19.12036100584247 L 98.33524781263401 18.885605744517107 L 99.90988975013161 18.678300200639683 L 101.48790984264355 18.498507521487127 L 103.0688274099631 18.346282473651158 L 104.65216088928457 18.221671426355996 L 106.23742798189207 18.124712337333776 L 107.82414580007243 18.05543474126229 L 109.4118310142072 18.013859740768396 L 110.99999999999999 18 L 110.99999999999999 44 L 109.86559358157658 44.00989981483457 L 108.73153271433745 44.03959624375878 L 107.59816284420862 44.0890802409527 L 106.46582920663184 44.158336733111426 L 105.33487672140221 44.24734462403654 L 104.20564988760253 44.35607680106223 L 103.07849267866544 44.484500143314065 L 101.95374843759572 44.63257553179794 L 100.83175977238498 44.800257861316055 L 99.71286845164953 44.987496054206474 L 98.5974153005246 45.19423307590184 L 97.48574009684562 45.42040595230264 L 96.37818146764876 45.66594578895972 L 95.2750767860216 45.930777792060226 L 94.17676206833616 46.21482129121056 L 93.08357187189507 46.517989764009265 L 91.99583919302209 46.84019086240271 L 90.9138953656284 47.18132644081502 L 89.83806996028483 47.541292586044406 L 88.76869068383155 47.919979648915955 L 87.70608327955546 48.317272277681894 L 86.6505714279657 48.73304945315883 L 85.6024766481972 49.16718452559138 L 84.562118200073 49.61954525323094 L 83.52981298685455 50.089993842617744 L 82.50587545870995 50.57838699055416 L 81.49061751692945 51.08457592775609 L 80.48434841891711 51.60840646416975 L 79.48737468398811 52.14971903593926 L 78.49999999999997 52.7083487540115 L 77.52252513084646 53.284125454362716 L 76.55524782484167 53.87687374983231 L 75.59846272402325 54.48641308354744 L 74.65246127440147 55.11255778392228 L 73.71753163718199 55.75511712121555 L 72.79395860098924 56.41389536562842 L 71.88202349511687 57.08869184692597 L 70.98200410383222 57.779301015563064 L 70.09417458176054 58.48551250529691 L 69.21880537037494 59.207111197266435 L 68.35616311561702 59.94387728551982 L 67.50651058667422 60.69558634396937 L 66.6701065959376 61.46200939475392 L 65.84720592016518 62.24291297798767 L 65.03805922287441 63.038059222874416 L 64.24291297798769 63.84720592016517 L 63.46200939475391 64.6701065959376 L 62.695586343969374 65.50651058667421 L 61.94387728551981 66.35616311561705 L 61.20711119726643 67.21880537037495 L 60.485512505296896 68.09417458176056 L 59.77930101556307 68.98200410383222 L 59.08869184692597 69.88202349511685 L 58.413895365628406 70.79395860098926 L 57.755117121215534 71.71753163718199 L 57.11255778392228 72.65246127440147 L 56.48641308354744 73.59846272402325 L 55.876873749832306 74.55524782484169 L 55.2841254543627 75.52252513084647 L 54.70834875401149 76.5 L 54.14971903593927 77.4873746839881 L 53.608406464169754 78.4843484189171 L 53.084575927756084 79.49061751692946 L 52.57838699055415 80.50587545870997 L 52.089993842617744 81.52981298685455 L 51.619545253230946 82.56211820007299 L 51.167184525591374 83.60247664819721 L 50.73304945315882 84.65057142796572 L 50.31727227768189 85.70608327955547 L 49.919979648915955 86.76869068383154 L 49.54129258604441 87.83806996028481 L 49.18132644081501 88.91389536562843 L 48.8401908624027 89.9958391930221 L 48.51798976400927 91.08357187189506 L 48.21482129121056 92.17676206833615 L 47.930777792060226 93.27507678602161 L 47.66594578895971 94.37818146764877 L 47.42040595230264 95.48574009684563 L 47.19423307590184 96.59741530052459 L 46.987496054206474 97.71286845164951 L 46.80025786131604 98.831759772385 L 46.63257553179794 99.95374843759575 L 46.484500143314065 101.07849267866543 L 46.35607680106223 102.20564988760252 L 46.24734462403654 103.33487672140224 L 46.158336733111426 104.46582920663185 L 46.0890802409527 105.59816284420867 L 46.03959624375878 106.73153271433745 L 46.00989981483457 107.86559358157656 L 46 109.00000000000001 L 46.00989981483457 110.13440641842342 L 46.03959624375878 111.26846728566258 L 46.0890802409527 112.40183715579134 L 46.158336733111426 113.53417079336816 L 46.24734462403654 114.66512327859778 L 46.35607680106223 115.7943501123975 L 46.484500143314065 116.92150732133459 L 46.632575531797926 118.04625156240425 L 46.800257861316055 119.16824022761502 L 46.987496054206474 120.28713154835047 L 47.19423307590184 121.40258469947543 L 47.42040595230263 122.51425990315435 L 47.66594578895972 123.62181853235124 L 47.930777792060226 124.7249232139784 L 48.21482129121057 125.82323793166387 L 48.51798976400927 126.91642812810495 L 48.84019086240269 128.0041608069779 L 49.18132644081502 129.0861046343716 L 49.541292586044406 130.16193003971517 L 49.91997964891596 131.23130931616848 L 50.31727227768189 132.2939167204445 L 50.73304945315883 133.3494285720343 L 51.167184525591374 134.3975233518028 L 51.61954525323095 135.43788179992703 L 52.08999384261775 136.47018701314548 L 52.578386990554144 137.49412454129003 L 53.08457592775609 138.50938248307054 L 53.60840646416975 139.5156515810829 L 54.14971903593928 140.5126253160119 L 54.70834875401148 141.5 L 55.28412545436271 142.47747486915353 L 55.87687374983231 143.44475217515833 L 56.48641308354745 144.40153727597678 L 57.11255778392229 145.34753872559855 L 57.75511712121553 146.28246836281798 L 58.41389536562842 147.20604139901076 L 59.08869184692596 148.11797650488313 L 59.77930101556308 149.0179958961678 L 60.48551250529689 149.90582541823943 L 61.207111197266435 150.78119462962508 L 61.94387728551982 151.64383688438298 L 62.69558634396939 152.4934894133258 L 63.46200939475392 153.3298934040624 L 64.24291297798767 154.15279407983482 L 65.03805922287441 154.9619407771256 L 65.84720592016518 155.7570870220123 L 66.6701065959376 156.53799060524608 L 67.50651058667421 157.30441365603062 L 68.35616311561704 158.05612271448018 L 69.21880537037495 158.79288880273356 L 70.09417458176057 159.51448749470313 L 70.98200410383221 160.22069898443692 L 71.88202349511685 160.91130815307403 L 72.79395860098926 161.5861046343716 L 73.71753163718199 162.24488287878447 L 74.65246127440147 162.88744221607772 L 75.59846272402325 163.51358691645254 L 76.55524782484169 164.1231262501677 L 77.52252513084647 164.7158745456373 L 78.50000000000001 165.29165124598853 L 79.4873746839881 165.85028096406074 L 80.4843484189171 166.39159353583025 L 81.49061751692946 166.91542407224392 L 82.50587545870997 167.42161300944585 L 83.52981298685455 167.91000615738227 L 84.56211820007299 168.38045474676906 L 85.60247664819721 168.83281547440862 L 86.65057142796572 169.26695054684117 L 87.70608327955549 169.6827277223181 L 88.76869068383154 170.08002035108404 L 89.83806996028483 170.4587074139556 L 90.91389536562842 170.818673559185 L 91.99583919302212 171.1598091375973 L 93.08357187189506 171.48201023599074 L 94.17676206833615 171.78517870878943 L 95.2750767860216 172.0692222079398 L 96.37818146764877 172.3340542110403 L 97.48574009684565 172.57959404769736 L 98.59741530052459 172.80576692409815 L 99.71286845164953 173.01250394579353 L 100.831759772385 173.19974213868397 L 101.95374843759575 173.36742446820207 L 103.07849267866543 173.51549985668595 L 104.20564988760252 173.64392319893778 L 105.33487672140221 173.75265537596346 L 106.46582920663185 173.8416632668886 L 107.59816284420864 173.91091975904732 L 108.73153271433743 173.96040375624122 L 109.86559358157658 173.99010018516543 L 111 174 L 111 200 L 111 200 Z" fill-opacity="1"></path><path fill="rgb(0,143,92)" stroke="none" paint-order="stroke fill markers" d=" M 98 187 C 98 179.8202982526 103.82029825260001 174 111 174 C 118.1797017474 174 124 179.8202982526 124 187 C 124 194.1797017474 118.1797017474 200 111 200 C 103.82029825260001 200 98 194.1797017474 98 187" fill-opacity="1"></path><path fill="rgb(0,143,92)" stroke="none" paint-order="stroke fill markers" d=" M 97.99999999999999 31 C 97.99999999999999 23.820298252599997 103.82029825259998 18 110.99999999999999 18 C 118.17970174739999 18 123.99999999999999 23.820298252599997 123.99999999999999 31 C 123.99999999999999 38.1797017474 118.17970174739999 44 110.99999999999999 44 C 103.82029825259998 44 97.99999999999999 38.1797017474 97.99999999999999 31" fill-opacity="1"></path></g><g><path fill="rgb(0,143,92)" stroke="none" paint-order="stroke fill markers" d=" M 124 31 L 124.00000000000001 207 L 98.00000000000001 207 L 98 31 L 124 31 Z" fill-opacity="1"></path><path fill="rgb(0,143,92)" stroke="none" paint-order="stroke fill markers" d=" M 111 18 C 118.1797017474 18 124 23.8202982526 124 31 C 124 38.179701747399996 118.1797017474 44 111 44 C 103.8202982526 44 98 38.1797017474 98 31 C 98 23.8202982526 103.8202982526 18 111 18" fill-opacity="1"></path><path fill="rgb(0,143,92)" stroke="none" paint-order="stroke fill markers" d=" M 111.00000000000001 194 C 118.1797017474 194 124.00000000000001 199.8202982526 124.00000000000001 207 C 124.00000000000001 214.1797017474 118.17970174740002 220 111.00000000000001 220 C 103.82029825260001 220 98.00000000000001 214.1797017474 98.00000000000001 207 C 98.00000000000001 199.8202982526 103.82029825260001 194 111.00000000000001 194" fill-opacity="1"></path></g><g><path fill="rgb(0,143,92)" stroke="none" paint-order="stroke fill markers" d=" M 28.975613382360493 178.29646455628165 C 20.490332008121925 169.8111831820431 20.490332008121925 169.8111831820431 28.26850660117394 160.61879502661796 L 38.87510831897215 147.18376618407356 L 72.81623381592642 181.12489168102786 L 59.381204973382026 191.73149339882605 C 50.18881681795691 199.50966799187808 50.18881681795691 199.50966799187808 41.70353544371834 191.0243866176395" fill-opacity="1"></path><path fill="rgb(0,143,92)" stroke="none" paint-order="stroke fill markers" d=" M 4 100 C 4 88 4 88 16 87 L 33 85 L 33 133 L 16 131 C 4 130 4 130 4 118" fill-opacity="1"></path><path fill="rgb(0,143,92)" stroke="none" paint-order="stroke fill markers" d=" M 41.70353544371834 26.975613382360493 C 50.18881681795691 18.49033200812191 50.18881681795691 18.49033200812191 59.381204973382026 26.268506601173954 L 72.81623381592642 36.87510831897215 L 38.87510831897215 70.81623381592644 L 28.26850660117394 57.38120497338204 C 20.490332008121925 48.18881681795691 20.490332008121925 48.18881681795691 28.975613382360493 39.70353544371834" fill-opacity="1"></path><path fill="rgb(0,143,92)" stroke="none" paint-order="stroke fill markers" d=" M 111.99999999999997 2 C 123.99999999999997 2 123.99999999999997 2 123.99999999999997 14 L 123.99999999999999 31 L 86.99999999999999 31 L 88.99999999999997 14 C 89.99999999999997 2 89.99999999999997 2 101.99999999999997 2" fill-opacity="1"></path></g></g><g><path fill="rgb(0,143,92)" stroke="none" paint-order="stroke fill markers" d=" M 184 25 L 184 216 L 158 216 L 158 25 L 184 25 Z" fill-opacity="1"></path><path fill="rgb(0,143,92)" stroke="none" paint-order="stroke fill markers" d=" M 171 12 C 178.1797017474 12 184 17.8202982526 184 25 C 184 32.179701747399996 178.1797017474 38 171 38 C 163.8202982526 38 158 32.1797017474 158 25 C 158 17.8202982526 163.8202982526 12 171 12" fill-opacity="1"></path><path fill="rgb(0,143,92)" stroke="none" paint-order="stroke fill markers" d=" M 171 203 C 178.1797017474 203 184 208.8202982526 184 216 C 184 223.1797017474 178.1797017474 229 171 229 C 163.82029825260003 229 158 223.1797017474 158 216 C 158 208.8202982526 163.82029825260003 203 171 203" fill-opacity="1"></path></g><g><path fill="rgb(0,143,92)" stroke="none" paint-order="stroke fill markers" d=" M 184 216 L 183.99040479485265 217.09950160554885 L 183.96162210220302 218.19866829225757 L 183.91366068953815 219.29716524330547 L 183.84653516636894 220.3946578458799 L 183.76026597977997 221.49081179310247 L 183.65487940820123 222.58529318586216 L 183.53040755340328 223.67776863452428 L 183.38688833071893 224.76790536048412 L 183.2243654574937 225.85537129753453 L 183.04288843976911 226.93983519301662 L 182.84251255720284 228.0209667087223 L 182.62329884622977 229.09843652151883 L 182.38531408146983 230.1719164236635 L 182.12863075538777 231.24107942277908 L 181.8533270562113 232.30559984145881 L 181.55948684411408 233.36515341647095 L 181.24719962567124 234.4194173975324 L 180.91656052659468 235.46807064562168 L 180.56767026275696 236.51079373080088 L 180.20063510951223 237.54726902951714 L 179.8155668693237 238.57718082135392 L 179.41258283770762 239.60021538520246 L 178.99180576750373 240.61606109482426 L 178.55336383148386 241.62440851377542 L 178.09739058330894 242.62495048966406 L 177.62402491684753 243.61738224771187 L 177.13341102386718 244.60140148359145 L 176.6256983501124 245.57670845551112 L 176.10104154978194 246.54300607551923 L 175.55960043841964 247.5 L 175.0015399442331 248.44739871933342 L 174.42703005785484 249.3849136466919 L 173.8362457805617 250.3122592059467 L 173.2293670709676 251.22915291865706 L 172.60657879020647 252.1353154901159 L 171.96807064562168 253.0304708944258 L 171.31403713297945 253.91434645857905 L 170.64467747722347 254.78667294551647 L 169.96019557178917 255.64718463613974 L 169.2607999164956 256.49561941025195 L 168.54670355403465 257.331718826402 L 167.81812400507584 258.15522820060806 L 167.07528320200774 258.9658966839374 L 166.31840742133502 259.7634773389168 L 165.5477272147525 260.5477272147525 L 164.76347733891683 261.318407421335 L 163.9658966839374 262.07528320200777 L 163.15522820060806 262.81812400507584 L 162.33171882640195 263.54670355403465 L 161.49561941025198 264.2607999164956 L 160.64718463613977 264.96019557178914 L 159.78667294551647 265.64467747722347 L 158.91434645857905 266.3140371329795 L 158.0304708944258 266.9680706456217 L 157.13531549011591 267.60657879020647 L 156.22915291865706 268.2293670709676 L 155.3122592059467 268.83624578056174 L 154.3849136466919 269.42703005785484 L 153.44739871933342 270.00153994423306 L 152.5 270.55960043841964 L 151.54300607551923 271.10104154978194 L 150.57670845551112 271.6256983501124 L 149.60140148359145 272.13341102386715 L 148.61738224771187 272.62402491684753 L 147.62495048966406 273.09739058330894 L 146.62440851377542 273.55336383148386 L 145.61606109482423 273.99180576750376 L 144.60021538520246 274.4125828377076 L 143.57718082135392 274.81556686932373 L 142.54726902951714 275.20063510951223 L 141.51079373080088 275.56767026275696 L 140.46807064562168 275.91656052659465 L 139.4194173975324 276.2471996256712 L 138.36515341647095 276.5594868441141 L 137.30559984145881 276.8533270562113 L 136.24107942277905 277.1286307553878 L 135.1719164236635 277.3853140814698 L 134.09843652151883 277.6232988462298 L 133.02096670872234 277.84251255720284 L 131.93983519301662 278.0428884397691 L 130.85537129753456 278.22436545749366 L 129.76790536048412 278.38688833071893 L 128.67776863452428 278.5304075534033 L 127.58529318586217 278.6548794082012 L 126.49081179310247 278.76026597977994 L 125.39465784587989 278.84653516636894 L 124.29716524330547 278.9136606895382 L 123.19866829225757 278.961622102203 L 122.09950160554887 278.9904047948527 L 121 279 L 121 253 L 121.6457390381795 252.99436472078648 L 122.29128137799253 252.97746059970655 L 122.93643038098892 252.94929278591923 L 123.58098952853263 252.90986985961348 L 124.22476248166335 252.85920382939457 L 124.86755314090318 252.79731012862612 L 125.50916570599045 252.7242076107289 L 126.14940473552242 252.6399185434381 L 126.78807520648854 252.5444686020201 L 127.42498257367643 252.4378868614517 L 128.05993282893218 252.32020578756357 L 128.6927325602571 252.1914612271508 L 129.323189010723 252.0516923970537 L 129.9511101371877 251.90094187221186 L 130.57630466879326 251.73925557269553 L 131.19858216522897 251.5666827497178 L 131.81775307474126 251.38327597063233 L 132.43362879187305 251.18909110292068 L 133.0460217149148 250.9841872971747 L 133.65474530304974 250.7686269690786 L 134.25961413317611 250.54247578039647 L 134.86044395638874 250.30580261897114 L 135.45705175410313 250.0586795777403 L 136.0492557938046 249.80118193277622 L 136.63687568440588 249.53338812035605 L 137.21973243119587 249.25537971306917 L 137.79764849036323 248.96724139496962 L 138.37044782307797 248.6690609357803 L 138.93795594911447 248.36092916415765 L 139.5 248.0429399400242 L 140.056408771672 247.71519012597815 L 140.60701277662858 247.37777955778776 L 141.151644295556 247.0308110139807 L 141.69013742841764 246.67439018453655 L 142.2223281449887 246.3086256386927 L 142.74805433482152 245.93362879187305 L 143.26715585662578 245.54951387174984 L 143.77947458704935 245.1563978834487 L 144.284854468844 244.75440057390793 L 144.78314155840195 244.34364439540218 L 145.27418407264878 243.92425446824257 L 145.75783243527775 243.4963585426636 L 146.23393932231244 243.0600869599093 L 146.7023597069829 242.6155726125301 L 147.16295090390227 242.16295090390224 L 147.6155726125301 241.7023597069829 L 148.0600869599093 241.23393932231244 L 148.4963585426636 240.75783243527775 L 148.92425446824257 240.27418407264878 L 149.34364439540218 239.78314155840195 L 149.75440057390793 239.28485446884397 L 150.1563978834487 238.77947458704935 L 150.54951387174984 238.26715585662578 L 150.93362879187305 237.74805433482152 L 151.3086256386927 237.2223281449887 L 151.67439018453655 236.69013742841764 L 152.0308110139807 236.151644295556 L 152.37777955778776 235.60701277662858 L 152.71519012597815 235.056408771672 L 153.04293994002424 234.5 L 153.36092916415765 233.93795594911447 L 153.6690609357803 233.37044782307797 L 153.96724139496962 232.79764849036323 L 154.25537971306917 232.21973243119587 L 154.53338812035605 231.63687568440588 L 154.80118193277622 231.0492557938046 L 155.0586795777403 230.45705175410313 L 155.30580261897114 229.86044395638874 L 155.54247578039647 229.25961413317611 L 155.7686269690786 228.65474530304974 L 155.9841872971747 228.0460217149148 L 156.18909110292068 227.43362879187305 L 156.38327597063233 226.81775307474126 L 156.5666827497178 226.19858216522897 L 156.73925557269553 225.57630466879326 L 156.90094187221186 224.9511101371877 L 157.0516923970537 224.323189010723 L 157.1914612271508 223.6927325602571 L 157.32020578756357 223.05993282893215 L 157.4378868614517 222.42498257367643 L 157.5444686020201 221.78807520648854 L 157.6399185434381 221.1494047355224 L 157.7242076107289 220.50916570599045 L 157.79731012862612 219.86755314090317 L 157.85920382939457 219.22476248166336 L 157.90986985961348 218.58098952853263 L 157.94929278591923 217.93643038098892 L 157.97746059970655 217.29128137799253 L 157.99436472078648 216.6457390381795 L 158 216 L 184 216 L 184 216 Z" fill-opacity="1"></path><path fill="rgb(0,143,92)" stroke="none" paint-order="stroke fill markers" d=" M 158 216 C 158 208.8202982526 163.8202982526 203 171 203 C 178.1797017474 203 184 208.8202982526 184 216 C 184 223.1797017474 178.1797017474 229 171 229 C 163.8202982526 229 158 223.1797017474 158 216" fill-opacity="1"></path><path fill="rgb(0,143,92)" stroke="none" paint-order="stroke fill markers" d=" M 108 266 C 108 258.82029825259997 113.8202982526 253 121 253 C 128.1797017474 253 134 258.82029825259997 134 266 C 134 273.17970174740003 128.1797017474 279 121 279 C 113.8202982526 279 108 273.17970174740003 108 266" fill-opacity="1"></path></g><g><path fill="rgb(0,143,92)" stroke="none" paint-order="stroke fill markers" d=" M 121 279 L 101 279 L 101 253 L 121 253 L 121 279 Z" fill-opacity="1"></path><path fill="rgb(0,143,92)" stroke="none" paint-order="stroke fill markers" d=" M 134 266 C 134 273.1797017474 128.1797017474 279 121 279 C 113.8202982526 279 108 273.1797017474 108 266 C 108 258.8202982526 113.8202982526 253 121 253 C 128.1797017474 253 134 258.8202982526 134 266" fill-opacity="1"></path><path fill="rgb(0,143,92)" stroke="none" paint-order="stroke fill markers" d=" M 114 266 C 114 273.1797017474 108.1797017474 279 101 279 C 93.8202982526 279 88 273.17970174740003 88 266 C 88 258.8202982526 93.8202982526 253 101 253 C 108.1797017474 253 114 258.8202982526 114 266" fill-opacity="1"></path></g><g><path fill="rgb(0,143,92)" stroke="none" paint-order="stroke fill markers" d=" M 101 279 L 99.90049839445115 278.9904047948527 L 98.80133170774243 278.961622102203 L 97.70283475669454 278.9136606895382 L 96.60534215412011 278.84653516636894 L 95.50918820689753 278.76026597977994 L 94.41470681413783 278.6548794082012 L 93.32223136547572 278.5304075534033 L 92.23209463951588 278.38688833071893 L 91.14462870246545 278.22436545749366 L 90.0601648069834 278.0428884397691 L 88.97903329127767 277.84251255720284 L 87.90156347848117 277.6232988462298 L 86.8280835763365 277.3853140814698 L 85.75892057722093 277.1286307553878 L 84.69440015854119 276.8533270562113 L 83.63484658352905 276.5594868441141 L 82.58058260246759 276.2471996256712 L 81.53192935437832 275.9165605265947 L 80.48920626919913 275.56767026275696 L 79.45273097048288 275.20063510951223 L 78.42281917864608 274.81556686932373 L 77.39978461479754 274.4125828377076 L 76.38393890517575 273.9918057675037 L 75.37559148622458 273.55336383148386 L 74.37504951033594 273.09739058330894 L 73.38261775228811 272.62402491684753 L 72.39859851640855 272.13341102386715 L 71.42329154448888 271.6256983501124 L 70.45699392448077 271.10104154978194 L 69.50000000000001 270.55960043841964 L 68.55260128066658 270.00153994423306 L 67.6150863533081 269.42703005785484 L 66.6877407940533 268.83624578056174 L 65.77084708134296 268.2293670709676 L 64.86468450988409 267.60657879020647 L 63.969529105574196 266.9680706456217 L 63.08565354142095 266.3140371329794 L 62.21332705448353 265.64467747722347 L 61.35281536386025 264.9601955717892 L 60.50438058974802 264.2607999164956 L 59.66828117359805 263.54670355403465 L 58.84477179939193 262.81812400507584 L 58.034103316062605 262.07528320200777 L 57.236522661083164 261.318407421335 L 56.45227278524751 260.5477272147525 L 55.681592578664976 259.7634773389168 L 54.92471679799226 258.9658966839374 L 54.18187599492418 258.15522820060806 L 53.453296445965364 257.331718826402 L 52.73920008350439 256.495619410252 L 52.039804428210836 255.64718463613974 L 51.35532252277652 254.78667294551647 L 50.68596286702054 253.91434645857902 L 50.03192935437832 253.03047089442583 L 49.39342120979351 252.1353154901159 L 48.77063292903238 251.22915291865706 L 48.16375421943829 250.31225920594673 L 47.572969942145164 249.3849136466919 L 46.99846005576693 248.44739871933342 L 46.440399561580364 247.5 L 45.89895845021807 246.54300607551923 L 45.3743016498876 245.57670845551112 L 44.86658897613283 244.60140148359145 L 44.375975083152476 243.61738224771187 L 43.90260941669106 242.62495048966406 L 43.44663616851615 241.62440851377542 L 43.00819423249626 240.61606109482426 L 42.5874171622924 239.60021538520246 L 42.18443313067629 238.57718082135392 L 41.79936489048777 237.54726902951714 L 66.23137303092139 228.65474530304974 L 66.45752421960353 229.25961413317611 L 66.69419738102887 229.86044395638876 L 66.94132042225971 230.45705175410313 L 67.19881806722377 231.0492557938046 L 67.46661187964395 231.63687568440588 L 67.74462028693083 232.21973243119587 L 68.0327586050304 232.79764849036323 L 68.3309390642197 233.37044782307797 L 68.63907083584236 233.93795594911447 L 68.95706005997576 234.5 L 69.28480987402185 235.056408771672 L 69.62222044221224 235.60701277662858 L 69.96918898601932 236.15164429555603 L 70.32560981546345 236.69013742841764 L 70.6913743613073 237.2223281449887 L 71.06637120812695 237.74805433482152 L 71.45048612825016 238.26715585662578 L 71.8436021165513 238.77947458704935 L 72.24559942609207 239.28485446884397 L 72.65635560459782 239.78314155840195 L 73.07574553175743 240.27418407264878 L 73.50364145733641 240.75783243527775 L 73.93991304009069 241.23393932231244 L 74.38442738746991 241.7023597069829 L 74.83704909609774 242.16295090390227 L 75.2976402930171 242.6155726125301 L 75.76606067768756 243.0600869599093 L 76.24216756472225 243.4963585426636 L 76.72581592735123 243.92425446824257 L 77.21685844159805 244.34364439540218 L 77.71514553115603 244.75440057390793 L 78.22052541295065 245.1563978834487 L 78.73284414337421 245.54951387174984 L 79.2519456651785 245.93362879187305 L 79.77767185501129 246.3086256386927 L 80.30986257158237 246.67439018453655 L 80.848355704444 247.0308110139807 L 81.39298722337142 247.37777955778776 L 81.94359122832799 247.71519012597815 L 82.5 248.04293994002424 L 83.06204405088553 248.36092916415765 L 83.62955217692203 248.6690609357803 L 84.20235150963677 248.96724139496962 L 84.78026756880413 249.25537971306917 L 85.36312431559412 249.53338812035605 L 85.9507442061954 249.80118193277622 L 86.54294824589687 250.0586795777403 L 87.13955604361125 250.30580261897114 L 87.74038586682389 250.54247578039647 L 88.34525469695026 250.7686269690786 L 88.9539782850852 250.9841872971747 L 89.56637120812695 251.18909110292068 L 90.18224692525874 251.38327597063233 L 90.80141783477103 251.5666827497178 L 91.42369533120673 251.73925557269553 L 92.04888986281229 251.90094187221186 L 92.67681098927699 252.0516923970537 L 93.3072674397429 252.1914612271508 L 93.94006717106784 252.32020578756357 L 94.57501742632358 252.4378868614517 L 95.21192479351146 252.5444686020201 L 95.85059526447758 252.6399185434381 L 96.49083429400955 252.7242076107289 L 97.13244685909682 252.79731012862612 L 97.77523751833664 252.85920382939457 L 98.41901047146736 252.90986985961348 L 99.06356961901108 252.94929278591923 L 99.70871862200747 252.97746059970655 L 100.35426096182051 252.99436472078648 L 101 253 L 101 279 L 101 279 Z" fill-opacity="1"></path><path fill="rgb(0,143,92)" stroke="none" paint-order="stroke fill markers" d=" M 88 266 C 88 258.82029825259997 93.8202982526 253 101 253 C 108.1797017474 253 114 258.82029825259997 114 266 C 114 273.17970174740003 108.1797017474 279 101 279 C 93.8202982526 279 88 273.17970174740003 88 266" fill-opacity="1"></path><path fill="rgb(0,143,92)" stroke="none" paint-order="stroke fill markers" d=" M 41.015368960704585 233.10100716628344 C 41.015368960704585 225.92130541888343 46.83566721330459 220.10100716628344 54.015368960704585 220.10100716628344 C 61.19507070810458 220.10100716628344 67.01536896070459 225.92130541888343 67.01536896070459 233.10100716628344 C 67.01536896070459 240.28070891368344 61.19507070810458 246.10100716628344 54.015368960704585 246.10100716628344 C 46.83566721330459 246.10100716628344 41.015368960704585 240.28070891368344 41.015368960704585 233.10100716628344" fill-opacity="1"></path></g><g><path fill="rgb(0,143,92)" stroke="none" paint-order="stroke fill markers" d=" M 171 12 L 256 12 L 256 38 L 171 38 L 171 12 Z" fill-opacity="1"></path><path fill="rgb(0,143,92)" stroke="none" paint-order="stroke fill markers" d=" M 158 25 C 158 17.8202982526 163.8202982526 12 171 12 C 178.1797017474 12 184 17.8202982526 184 25 C 184 32.1797017474 178.1797017474 38 171 38 C 163.8202982526 38 158 32.1797017474 158 25" fill-opacity="1"></path><path fill="rgb(0,143,92)" stroke="none" paint-order="stroke fill markers" d=" M 243 25 C 243 17.8202982526 248.8202982526 12 256 12 C 263.17970174740003 12 269 17.8202982526 269 25 C 269 32.1797017474 263.17970174740003 38 256 38 C 248.8202982526 38 243 32.1797017474 243 25" fill-opacity="1"></path></g><path fill="rgb(0,143,92)" stroke="none" paint-order="stroke fill markers" d=" M 236 25 C 236 13.954305004 244.954305004 5 256 5 C 267.045694996 5 276 13.954305004 276 25 C 276 36.045694996 267.045694996 45 256 45 C 244.954305004 45 236 36.045694996 236 25" fill-opacity="1"></path><g><path fill="rgb(0,143,92)" stroke="none" paint-order="stroke fill markers" d=" M 171 107.5 L 256 107.5 L 256 133.5 L 171 133.5 L 171 107.5 Z" fill-opacity="1"></path><path fill="rgb(0,143,92)" stroke="none" paint-order="stroke fill markers" d=" M 158 120.5 C 158 113.3202982526 163.8202982526 107.5 171 107.5 C 178.1797017474 107.5 184 113.3202982526 184 120.5 C 184 127.6797017474 178.1797017474 133.5 171 133.5 C 163.8202982526 133.5 158 127.6797017474 158 120.5" fill-opacity="1"></path><path fill="rgb(0,143,92)" stroke="none" paint-order="stroke fill markers" d=" M 243 120.5 C 243 113.3202982526 248.8202982526 107.5 256 107.5 C 263.17970174740003 107.5 269 113.3202982526 269 120.5 C 269 127.6797017474 263.17970174740003 133.5 256 133.5 C 248.8202982526 133.5 243 127.6797017474 243 120.5" fill-opacity="1"></path></g><path fill="rgb(0,143,92)" stroke="none" paint-order="stroke fill markers" d=" M 236 120.5 C 236 109.454305004 244.954305004 100.5 256 100.5 C 267.045694996 100.5 276 109.454305004 276 120.5 C 276 131.545694996 267.045694996 140.5 256 140.5 C 244.954305004 140.5 236 131.545694996 236 120.5" fill-opacity="1"></path><g><path fill="rgb(0,143,92)" stroke="none" paint-order="stroke fill markers" d=" M 171 203 L 256 203 L 256 229 L 171 229 L 171 203 Z" fill-opacity="1"></path><path fill="rgb(0,143,92)" stroke="none" paint-order="stroke fill markers" d=" M 158 216 C 158 208.8202982526 163.8202982526 203 171 203 C 178.1797017474 203 184 208.8202982526 184 216 C 184 223.1797017474 178.1797017474 229 171 229 C 163.8202982526 229 158 223.1797017474 158 216" fill-opacity="1"></path><path fill="rgb(0,143,92)" stroke="none" paint-order="stroke fill markers" d=" M 243 216 C 243 208.8202982526 248.8202982526 203 256 203 C 263.17970174740003 203 269 208.8202982526 269 216 C 269 223.1797017474 263.17970174740003 229 256 229 C 248.8202982526 229 243 223.1797017474 243 216" fill-opacity="1"></path></g><path fill="rgb(0,143,92)" stroke="none" paint-order="stroke fill markers" d=" M 236 216 C 236 204.954305004 244.954305004 196 256 196 C 267.045694996 196 276 204.954305004 276 216 C 276 227.045694996 267.045694996 236 256 236 C 244.954305004 236 236 227.045694996 236 216" fill-opacity="1"></path><g><path fill="rgb(0,143,92)" stroke="none" paint-order="stroke fill markers" d=" M 171 62.5 L 206 62.5 L 206 88.5 L 171 88.5 L 171 62.5 Z" fill-opacity="1"></path><path fill="rgb(0,143,92)" stroke="none" paint-order="stroke fill markers" d=" M 158 75.5 C 158 68.3202982526 163.8202982526 62.5 171 62.5 C 178.1797017474 62.5 184 68.3202982526 184 75.5 C 184 82.6797017474 178.1797017474 88.5 171 88.5 C 163.8202982526 88.5 158 82.6797017474 158 75.5" fill-opacity="1"></path><path fill="rgb(0,143,92)" stroke="none" paint-order="stroke fill markers" d=" M 193 75.5 C 193 68.3202982526 198.8202982526 62.5 206 62.5 C 213.1797017474 62.5 219 68.3202982526 219 75.5 C 219 82.6797017474 213.1797017474 88.5 206 88.5 C 198.8202982526 88.5 193 82.6797017474 193 75.5" fill-opacity="1"></path></g><g><path fill="rgb(0,143,92)" stroke="none" paint-order="stroke fill markers" d=" M 171 152.5 L 206 152.5 L 206 178.5 L 171 178.5 L 171 152.5 Z" fill-opacity="1"></path><path fill="rgb(0,143,92)" stroke="none" paint-order="stroke fill markers" d=" M 158 165.5 C 158 158.3202982526 163.8202982526 152.5 171 152.5 C 178.1797017474 152.5 184 158.3202982526 184 165.5 C 184 172.6797017474 178.1797017474 178.5 171 178.5 C 163.8202982526 178.5 158 172.6797017474 158 165.5" fill-opacity="1"></path><path fill="rgb(0,143,92)" stroke="none" paint-order="stroke fill markers" d=" M 193 165.5 C 193 158.3202982526 198.8202982526 152.5 206 152.5 C 213.1797017474 152.5 219 158.3202982526 219 165.5 C 219 172.6797017474 213.1797017474 178.5 206 178.5 C 198.8202982526 178.5 193 172.6797017474 193 165.5" fill-opacity="1"></path></g></g></svg>