<svg version="1.1" xmlns="http://www.w3.org/2000/svg" xmlns:xlink="http://www.w3.org/1999/xlink" width="280" height="280" viewBox="0 0 280 280"><defs></defs><g><g><g><path fill="rgb(0,143,92)" stroke="none" paint-order="stroke fill markers" d=" M 111 200 L 109.41183101420721 199.9861402592316 L 107.82414580007242 199.94456525873773 L 106.23742798189211 199.8752876626662 L 104.6521608892846 199.778328573644 L 103.0688274099631 199.65371752634883 L 101.48790984264353 199.5014924785129 L 99.90988975013158 199.32169979936032 L 98.33524781263405 199.11439425548292 L 96.764463681339 198.87963899415752 L 95.19801583230934 198.61750552411092 L 93.63638142073442 198.32807369373742 L 92.0800361355839 198.01143166677633 L 90.52945405470828 197.6676758954564 L 88.98510750043023 197.29691109111567 L 87.4474668956706 196.8992501923052 L 85.91700062065308 196.474814330387 L 84.39417487023096 196.02373279263622 L 82.87945351187979 195.54614298285898 L 81.37329794439874 195.04219037953783 L 79.87616695736415 194.51202849151767 L 78.38851659137768 193.95581881124536 L 76.910799999152 193.37373076557765 L 75.44346730747608 192.76594166417206 L 73.98696548010219 192.13263664547668 L 72.54173818159636 191.47400862033516 L 71.10822564219394 190.7902582132242 L 69.68686452370125 190.08159370114146 L 68.27808778648392 189.34823095016236 L 66.88232455758333 188.59039334968503 L 65.50000000000003 187.80831174438393 L 64.13153518318506 187.00222436389222 L 62.777346954778366 186.17237675023478 L 61.43784781363254 185.31902168303358 L 60.11344578416205 184.44241910250878 L 58.8045442920548 183.54283603029825 L 57.511542041384956 182.62054648812023 L 56.2348328931636 181.67583141430364 L 54.974805745365096 180.7089785782117 L 53.73184441446481 179.72028249258437 L 52.50632751852492 178.710044323827 L 51.29862836186385 177.67857180027227 L 50.1091148213439 176.62617911844288 L 48.93814923431265 175.55318684734453 L 47.78608828823124 174.45992183081725 L 46.65328291202418 173.34671708797583 L 45.540078169182735 172.21391171176873 L 44.446813152655494 171.06185076568738 L 43.37382088155715 169.8908851786561 L 42.32142819972775 168.70137163813615 L 41.28995567617301 167.4936724814751 L 40.279717507415654 166.2681555855352 L 39.2910214217883 165.02519425463493 L 38.32416858569634 163.76516710683637 L 37.37945351187979 162.48845795861507 L 36.45716396970174 161.19545570794517 L 35.557580897491206 159.88655421583798 L 34.68097831696642 158.56215218636748 L 33.82762324976524 157.22265304522165 L 32.99777563610779 155.86846481681494 L 32.19168825561607 154.5 L 31.409606650314984 153.11767544241667 L 30.65176904983764 151.72191221351605 L 29.918406298858528 150.31313547629875 L 29.209741786775794 148.89177435780604 L 28.52599137966486 147.45826181840366 L 27.867363354523334 146.01303451989784 L 27.234058335827925 144.55653269252392 L 26.626269234422352 143.08920000084802 L 26.044181188754635 141.61148340862232 L 25.487971508482346 140.12383304263588 L 24.95780962046217 138.62670205560124 L 24.453857017141033 137.12054648812023 L 23.97626720736376 135.60582512976902 L 23.52518566961298 134.08299937934692 L 23.100749807694797 132.55253310432943 L 22.703088908884325 131.01489249956975 L 22.332324104543602 129.47054594529175 L 21.988568333223682 127.9199638644161 L 21.671926306262577 126.36361857926559 L 21.382494475889075 124.80198416769065 L 21.12036100584247 123.23553631866102 L 20.885605744517093 121.66475218736595 L 20.678300200639697 120.09011024986843 L 20.498507521487127 118.51209015735648 L 20.346282473651158 116.9311725900369 L 20.221671426355996 115.34783911071543 L 20.124712337333776 113.76257201810789 L 20.05543474126229 112.1758541999276 L 20.013859740768396 110.58816898579279 L 20 109.00000000000001 L 20.013859740768396 107.4118310142072 L 20.05543474126229 105.82414580007242 L 20.124712337333776 104.23742798189214 L 20.221671426355996 102.6521608892846 L 20.346282473651158 101.06882740996312 L 20.498507521487127 99.48790984264353 L 20.678300200639683 97.9098897501316 L 20.885605744517107 96.33524781263404 L 21.12036100584247 94.76446368133901 L 21.382494475889075 93.19801583230932 L 21.671926306262577 91.63638142073444 L 21.988568333223697 90.08003613558388 L 22.332324104543588 88.52945405470828 L 22.703088908884325 86.98510750043026 L 23.100749807694783 85.4474668956706 L 23.52518566961298 83.91700062065308 L 23.976267207363776 82.39417487023096 L 24.45385701714102 80.8794535118798 L 24.95780962046217 79.37329794439873 L 25.48797150848233 77.87616695736415 L 26.044181188754635 76.38851659137765 L 26.626269234422338 74.910799999152 L 27.234058335827925 73.44346730747611 L 27.86736335452332 71.98696548010219 L 28.525991379664845 70.54173818159637 L 29.20974178677581 69.10822564219396 L 29.918406298858528 67.68686452370125 L 30.651769049837654 66.27808778648392 L 31.409606650314984 64.88232455758333 L 32.191688255616086 63.49999999999999 L 32.997775636107775 62.13153518318507 L 33.827623249765225 60.777346954778366 L 34.68097831696642 59.43784781363254 L 35.55758089749119 58.11344578416205 L 36.45716396970175 56.8045442920548 L 37.379453511879774 55.511542041384956 L 38.324168585696356 54.2348328931636 L 39.2910214217883 52.9748057453651 L 40.279717507415654 51.731844414464774 L 41.289955676172994 50.50632751852493 L 42.321428199727734 49.298628361863855 L 43.37382088155712 48.1091148213439 L 44.44681315265548 46.93814923431265 L 45.54007816918275 45.78608828823124 L 46.65328291202417 44.65328291202418 L 47.78608828823125 43.540078169182735 L 48.938149234312625 42.446813152655494 L 50.10911482134391 41.37382088155711 L 51.29862836186384 40.32142819972775 L 52.506327518524905 39.28995567617301 L 53.73184441446476 38.27971750741568 L 54.97480574536512 37.29102142178829 L 56.234832893163606 36.324168585696356 L 57.511542041384935 35.37945351187979 L 58.80454429205478 34.45716396970177 L 60.11344578416206 33.55758089749119 L 61.437847813632544 32.68097831696642 L 62.777346954778345 31.82762324976524 L 64.13153518318504 30.997775636107804 L 65.49999999999996 30.191688255616114 L 66.88232455758335 29.40960665031497 L 68.27808778648395 28.65176904983764 L 69.68686452370123 27.918406298858528 L 71.10822564219393 27.209741786775822 L 72.54173818159637 26.525991379664845 L 73.98696548010219 25.867363354523306 L 75.44346730747608 25.23405833582794 L 76.91079999915198 24.626269234422352 L 78.38851659137764 24.04418118875465 L 79.87616695736416 23.48797150848233 L 81.37329794439874 22.95780962046217 L 82.87945351187977 22.453857017141033 L 84.39417487023093 21.97626720736379 L 85.9170006206531 21.525185669612966 L 87.44746689567063 21.100749807694783 L 88.98510750043023 20.703088908884325 L 90.52945405470825 20.332324104543602 L 92.08003613558387 19.988568333223697 L 93.63638142073444 19.671926306262577 L 95.19801583230934 19.382494475889075 L 96.76446368133898 19.12036100584247 L 98.33524781263401 18.885605744517107 L 99.90988975013161 18.678300200639683 L 101.48790984264355 18.498507521487127 L 103.0688274099631 18.346282473651158 L 104.65216088928457 18.221671426355996 L 106.23742798189207 18.124712337333776 L 107.82414580007243 18.05543474126229 L 109.4118310142072 18.013859740768396 L 110.99999999999999 18 L 110.99999999999999 44 L 109.86559358157658 44.00989981483457 L 108.73153271433745 44.03959624375878 L 107.59816284420862 44.0890802409527 L 106.46582920663184 44.158336733111426 L 105.33487672140221 44.24734462403654 L 104.20564988760253 44.35607680106223 L 103.07849267866544 44.484500143314065 L 101.95374843759572 44.63257553179794 L 100.83175977238498 44.800257861316055 L 99.71286845164953 44.987496054206474 L 98.5974153005246 45.19423307590184 L 97.48574009684562 45.42040595230264 L 96.37818146764876 45.66594578895972 L 95.2750767860216 45.930777792060226 L 94.17676206833616 46.21482129121056 L 93.08357187189507 46.517989764009265 L 91.99583919302209 46.84019086240271 L 90.9138953656284 47.18132644081502 L 89.83806996028483 47.541292586044406 L 88.76869068383155 47.919979648915955 L 87.70608327955546 48.317272277681894 L 86.6505714279657 48.73304945315883 L 85.6024766481972 49.16718452559138 L 84.562118200073 49.61954525323094 L 83.52981298685455 50.089993842617744 L 82.50587545870995 50.57838699055416 L 81.49061751692945 51.08457592775609 L 80.48434841891711 51.60840646416975 L 79.48737468398811 52.14971903593926 L 78.49999999999997 52.7083487540115 L 77.52252513084646 53.284125454362716 L 76.55524782484167 53.87687374983231 L 75.59846272402325 54.48641308354744 L 74.65246127440147 55.11255778392228 L 73.71753163718199 55.75511712121555 L 72.79395860098924 56.41389536562842 L 71.88202349511687 57.08869184692597 L 70.98200410383222 57.779301015563064 L 70.09417458176054 58.48551250529691 L 69.21880537037494 59.207111197266435 L 68.35616311561702 59.94387728551982 L 67.50651058667422 60.69558634396937 L 66.6701065959376 61.46200939475392 L 65.84720592016518 62.24291297798767 L 65.03805922287441 63.038059222874416 L 64.24291297798769 63.84720592016517 L 63.46200939475391 64.6701065959376 L 62.695586343969374 65.50651058667421 L 61.94387728551981 66.35616311561705 L 61.20711119726643 67.21880537037495 L 60.485512505296896 68.09417458176056 L 59.77930101556307 68.98200410383222 L 59.08869184692597 69.88202349511685 L 58.413895365628406 70.79395860098926 L 57.755117121215534 71.71753163718199 L 57.11255778392228 72.65246127440147 L 56.48641308354744 73.59846272402325 L 55.876873749832306 74.55524782484169 L 55.2841254543627 75.52252513084647 L 54.70834875401149 76.5 L 54.14971903593927 77.4873746839881 L 53.608406464169754 78.4843484189171 L 53.084575927756084 79.49061751692946 L 52.57838699055415 80.50587545870997 L 52.089993842617744 81.52981298685455 L 51.619545253230946 82.56211820007299 L 51.167184525591374 83.60247664819721 L 50.73304945315882 84.65057142796572 L 50.31727227768189 85.70608327955547 L 49.919979648915955 86.76869068383154 L 49.54129258604441 87.83806996028481 L 49.18132644081501 88.91389536562843 L 48.8401908624027 89.9958391930221 L 48.51798976400927 91.08357187189506 L 48.21482129121056 92.17676206833615 L 47.930777792060226 93.27507678602161 L 47.66594578895971 94.37818146764877 L 47.42040595230264 95.48574009684563 L 47.19423307590184 96.59741530052459 L 46.987496054206474 97.71286845164951 L 46.80025786131604 98.831759772385 L 46.63257553179794 99.95374843759575 L 46.484500143314065 101.07849267866543 L 46.35607680106223 102.20564988760252 L 46.24734462403654 103.33487672140224 L 46.158336733111426 104.46582920663185 L 46.0890802409527 105.59816284420867 L 46.03959624375878 106.73153271433745 L 46.00989981483457 107.86559358157656 L 46 109.00000000000001 L 46.00989981483457 110.13440641842342 L 46.03959624375878 111.26846728566258 L 46.0890802409527 112.40183715579134 L 46.158336733111426 113.53417079336816 L 46.24734462403654 114.66512327859778 L 46.35607680106223 115.7943501123975 L 46.484500143314065 116.92150732133459 L 46.632575531797926 118.04625156240425 L 46.800257861316055 119.16824022761502 L 46.987496054206474 120.28713154835047 L 47.19423307590184 121.40258469947543 L 47.42040595230263 122.51425990315435 L 47.66594578895972 123.62181853235124 L 47.930777792060226 124.7249232139784 L 48.21482129121057 125.82323793166387 L 48.51798976400927 126.91642812810495 L 48.84019086240269 128.0041608069779 L 49.18132644081502 129.0861046343716 L 49.541292586044406 130.16193003971517 L 49.91997964891596 131.23130931616848 L 50.31727227768189 132.2939167204445 L 50.73304945315883 133.3494285720343 L 51.167184525591374 134.3975233518028 L 51.61954525323095 135.43788179992703 L 52.08999384261775 136.47018701314548 L 52.578386990554144 137.49412454129003 L 53.08457592775609 138.50938248307054 L 53.60840646416975 139.5156515810829 L 54.14971903593928 140.5126253160119 L 54.70834875401148 141.5 L 55.28412545436271 142.47747486915353 L 55.87687374983231 143.44475217515833 L 56.48641308354745 144.40153727597678 L 57.11255778392229 145.34753872559855 L 57.75511712121553 146.28246836281798 L 58.41389536562842 147.20604139901076 L 59.08869184692596 148.11797650488313 L 59.77930101556308 149.0179958961678 L 60.48551250529689 149.90582541823943 L 61.207111197266435 150.78119462962508 L 61.94387728551982 151.64383688438298 L 62.69558634396939 152.4934894133258 L 63.46200939475392 153.3298934040624 L 64.24291297798767 154.15279407983482 L 65.03805922287441 154.9619407771256 L 65.84720592016518 155.7570870220123 L 66.6701065959376 156.53799060524608 L 67.50651058667421 157.30441365603062 L 68.35616311561704 158.05612271448018 L 69.21880537037495 158.79288880273356 L 70.09417458176057 159.51448749470313 L 70.98200410383221 160.22069898443692 L 71.88202349511685 160.91130815307403 L 72.79395860098926 161.5861046343716 L 73.71753163718199 162.24488287878447 L 74.65246127440147 162.88744221607772 L 75.59846272402325 163.51358691645254 L 76.55524782484169 164.1231262501677 L 77.52252513084647 164.7158745456373 L 78.50000000000001 165.29165124598853 L 79.4873746839881 165.85028096406074 L 80.4843484189171 166.39159353583025 L 81.49061751692946 166.91542407224392 L 82.50587545870997 167.42161300944585 L 83.52981298685455 167.91000615738227 L 84.56211820007299 168.38045474676906 L 85.60247664819721 168.83281547440862 L 86.65057142796572 169.26695054684117 L 87.70608327955549 169.6827277223181 L 88.76869068383154 170.08002035108404 L 89.83806996028483 170.4587074139556 L 90.91389536562842 170.818673559185 L 91.99583919302212 171.1598091375973 L 93.08357187189506 171.48201023599074 L 94.17676206833615 171.78517870878943 L 95.2750767860216 172.0692222079398 L 96.37818146764877 172.3340542110403 L 97.48574009684565 172.57959404769736 L 98.59741530052459 172.80576692409815 L 99.71286845164953 173.01250394579353 L 100.831759772385 173.19974213868397 L 101.95374843759575 173.36742446820207 L 103.07849267866543 173.51549985668595 L 104.20564988760252 173.64392319893778 L 105.33487672140221 173.75265537596346 L 106.46582920663185 173.8416632668886 L 107.59816284420864 173.91091975904732 L 108.73153271433743 173.96040375624122 L 109.86559358157658 173.99010018516543 L 111 174 L 111 200 L 111 200 Z" fill-opacity="1"></path><path fill="rgb(0,143,92)" stroke="none" paint-order="stroke fill markers" d=" M 98 187 C 98 179.8202982526 103.82029825260001 174 111 174 C 118.1797017474 174 124 179.8202982526 124 187 C 124 194.1797017474 118.1797017474 200 111 200 C 103.82029825260001 200 98 194.1797017474 98 187" fill-opacity="1"></path><path fill="rgb(0,143,92)" stroke="none" paint-order="stroke fill markers" d=" M 97.99999999999999 31 C 97.99999999999999 23.820298252599997 103.82029825259998 18 110.99999999999999 18 C 118.17970174739999 18 123.99999999999999 23.820298252599997 123.99999999999999 31 C 123.99999999999999 38.1797017474 118.17970174739999 44 110.99999999999999 44 C 103.82029825259998 44 97.99999999999999 38.1797017474 97.99999999999999 31" fill-opacity="1"></path></g><g><path fill="rgb(0,143,92)" stroke="none" paint-order="stroke fill markers" d=" M 124 31 L 124.00000000000001 207 L 98.00000000000001 207 L 98 31 L 124 31 Z" fill-opacity="1"></path><path fill="rgb(0,143,92)" stroke="none" paint-order="stroke fill markers" d=" M 111 18 C 118.1797017474 18 124 23.8202982526 124 31 C 124 38.179701747399996 118.1797017474 44 111 44 C 103.8202982526 44 98 38.1797017474 98 31 C 98 23.8202982526 103.8202982526 18 111 18" fill-opacity="1"></path><path fill="rgb(0,143,92)" stroke="none" paint-order="stroke fill markers" d=" M 111.00000000000001 194 C 118.1797017474 194 124.00000000000001 199.8202982526 124.00000000000001 207 C 124.00000000000001 214.1797017474 118.17970174740002 220 111.00000000000001 220 C 103.82029825260001 220 98.00000000000001 214.1797017474 98.00000000000001 207 C 98.00000000000001 199.8202982526 103.82029825260001 194 111.00000000000001 194" fill-opacity="1"></path></g><g><path fill="rgb(0,143,92)" stroke="none" paint-order="stroke fill markers" d=" M 28.975613382360493 178.29646455628165 C 20.490332008121925 169.8111831820431 20.490332008121925 169.8111831820431 28.26850660117394 160.61879502661796 L 38.87510831897215 147.18376618407356 L 72.81623381592642 181.12489168102786 L 59.381204973382026 191.73149339882605 C 50.18881681795691 199.50966799187808 50.18881681795691 199.50966799187808 41.70353544371834 191.0243866176395" fill-opacity="1"></path><path fill="rgb(0,143,92)" stroke="none" paint-order="stroke fill markers" d=" M 4 100 C 4 88 4 88 16 87 L 33 85 L 33 133 L 16 131 C 4 130 4 130 4 118" fill-opacity="1"></path><path fill="rgb(0,143,92)" stroke="none" paint-order="stroke fill markers" d=" M 41.70353544371834 26.975613382360493 C 50.18881681795691 18.49033200812191 50.18881681795691 18.49033200812191 59.381204973382026 26.268506601173954 L 72.81623381592642 36.87510831897215 L 38.87510831897215 70.81623381592644 L 28.26850660117394 57.38120497338204 C 20.490332008121925 48.18881681795691 20.490332008121925 48.18881681795691 28.975613382360493 39.70353544371834" fill-opacity="1"></path><path fill="rgb(0,143,92)" stroke="none" paint-order="stroke fill markers" d=" M 111.99999999999997 2 C 123.99999999999997 2 123.99999999999997 2 123.99999999999997 14 L 123.99999999999999 31 L 86.99999999999999 31 L 88.99999999999997 14 C 89.99999999999997 2 89.99999999999997 2 101.99999999999997 2" fill-opacity="1"></path></g></g><g><path fill="rgb(0,143,92)" stroke="none" paint-order="stroke fill markers" d=" M 180 25 L 180 216 L 162 216 L 162 25 L 180 25 Z" fill-opacity="1"></path><path fill="rgb(0,143,92)" stroke="none" paint-order="stroke fill markers" d=" M 171 16 C 175.9705627482 16 180 20.029437251799997 180 25 C 180 29.9705627482 175.9705627482 34 171 34 C 166.0294372518 34 162 29.970562748200003 162 25 C 162 20.0294372518 166.0294372518 16 171 16" fill-opacity="1"></path><path fill="rgb(0,143,92)" stroke="none" paint-order="stroke fill markers" d=" M 171 207 C 175.97056274820002 207 180 211.0294372518 180 216 C 180 220.9705627482 175.97056274820002 225 171 225 C 166.0294372518 225 162 220.9705627482 162 216 C 162 211.0294372518 166.0294372518 207 171 207" fill-opacity="1"></path></g><g><path fill="rgb(0,143,92)" stroke="none" paint-order="stroke fill markers" d=" M 180 216 L 179.9910140142271 217.02969197979974 L 179.96405879412666 218.05907030544756 L 179.91914255051987 219.08782141833368 L 179.85627896532964 220.1156319509034 L 179.77548718741298 221.14218882211182 L 179.67679182672813 222.16717933279156 L 179.560222946838 223.1902912609037 L 179.42581605575265 224.21121295664386 L 179.27361209511312 225.22963343737362 L 179.10365742772026 226.24524248234889 L 178.91600382341218 227.25773072721614 L 178.71070844329455 228.2667897582478 L 178.48783382232887 229.27211220628803 L 178.24744785028378 230.27339184038038 L 177.98962375105503 231.27032366104874 L 177.7144400603608 232.26260399320296 L 177.4219806018191 233.24993057864145 L 177.11233446141406 234.2320026681219 L 176.7855959603597 235.20852111297225 L 176.4418646263686 236.17918845621446 L 176.0812451633349 237.1437090231727 L 175.70384741944045 238.1017890115388 L 175.309786353694 239.05313658086715 L 174.89918200091344 239.9974619414722 L 174.47215943516235 240.93447744270128 L 174.02884873165084 241.86389766055555 L 173.5693849271137 242.78543948463326 L 173.0939079786767 243.69882220436756 L 172.60256272122436 244.60376759453388 L 172.0954988232819 245.5 L 171.57287074142462 246.38724641969318 L 171.03483767322913 247.2652365897591 L 170.48156350878003 248.1337030658866 L 169.91321678074746 248.99238130477409 L 169.3299706130505 249.84100974471173 L 168.7320026681219 250.67932988525592 L 168.11949509279026 251.50708636597085 L 167.4926344627966 252.32402704421384 L 166.85161172596128 253.12990307194042 L 166.1966221440197 253.9244689715058 L 165.52786523314356 254.70748271043993 L 164.84554470316627 255.47870577517264 L 164.14986839553106 256.2379032436874 L 163.44104821998042 256.9848438570808 L 162.7193000900063 257.7193000900063 L 161.98484385708085 258.4410482199804 L 161.2379032436874 259.14986839553103 L 160.47870577517264 259.84554470316624 L 159.70748271043993 260.52786523314353 L 158.92446897150583 261.1966221440197 L 158.12990307194042 261.8516117259613 L 157.32402704421384 262.4926344627966 L 156.50708636597085 263.11949509279026 L 155.67932988525592 263.7320026681219 L 154.84100974471173 264.32997061305053 L 153.99238130477406 264.91321678074746 L 153.1337030658866 265.48156350878 L 152.2652365897591 266.03483767322916 L 151.38724641969318 266.57287074142465 L 150.5 267.0954988232819 L 149.60376759453388 267.60256272122433 L 148.69882220436756 268.09390797867667 L 147.78543948463326 268.5693849271137 L 146.86389766055558 269.02884873165084 L 145.93447744270128 269.4721594351623 L 144.9974619414722 269.89918200091347 L 144.05313658086715 270.309786353694 L 143.1017890115388 270.7038474194405 L 142.14370902317273 271.0812451633349 L 141.17918845621446 271.4418646263686 L 140.20852111297225 271.7855959603597 L 139.2320026681219 272.11233446141404 L 138.24993057864145 272.4219806018191 L 137.26260399320296 272.7144400603608 L 136.27032366104874 272.98962375105503 L 135.27339184038038 273.2474478502838 L 134.27211220628803 273.48783382232887 L 133.2667897582478 273.71070844329455 L 132.25773072721614 273.91600382341215 L 131.24524248234889 274.1036574277203 L 130.22963343737362 274.27361209511315 L 129.21121295664386 274.42581605575265 L 128.1902912609037 274.560222946838 L 127.16717933279155 274.6767918267281 L 126.14218882211183 274.775487187413 L 125.11563195090339 274.85627896532964 L 124.08782141833369 274.91914255051984 L 123.05907030544756 274.96405879412663 L 122.02969197979974 274.99101401422706 L 121 275 L 121 257 L 121.71554866392863 256.993755501412 L 122.43087936480255 256.97502390778294 L 123.1457742059607 256.9438109249375 L 123.86001542350914 256.9001260606528 L 124.57338545265398 256.8439826217616 L 125.28566699397379 256.7753977100992 L 125.99664307961105 256.6943922172942 L 126.70609713936268 256.6009908184044 L 127.41381306664947 256.4952219644006 L 128.11957528434414 256.37711787350054 L 128.82316881043835 256.2467145213542 L 129.52437932352814 256.104051630086 L 130.22299322809846 255.94917265619466 L 130.91879771958637 255.78212477731586 L 131.61158084920334 255.6029588778518 L 132.30113158849696 255.4117295334711 L 132.9872398936322 255.20849499448445 L 133.66969676937285 254.9933171681013 L 134.34829433274342 254.76626159957198 L 135.0228258763524 254.52739745222223 L 135.6930859313573 254.27679748638528 L 136.35887033005238 254.01453803723828 L 137.01997626806022 253.74069899155006 L 137.67620236610782 253.45536376334664 L 138.3273487313687 253.15861926850266 L 138.9732170183522 252.85055589826584 L 139.61361048932142 252.53126749172307 L 140.24833407422153 252.200851307216 L 140.87719443009982 251.85940799271523 L 141.5 251.50704155516198 L 142.11656107131222 251.14385932878662 L 142.7266898335614 250.76997194241346 L 143.33020043561612 250.38549328576238 L 143.92690904230062 249.9905404747567 L 144.51663389039288 249.58523381584865 L 145.0991953439914 249.16969676937285 L 145.67441594923397 248.744055911939 L 146.242120488352 248.3084408978756 L 146.80213603304333 247.8629844197358 L 147.35429199714812 247.4078221678781 L 147.8984201886108 246.94309278913366 L 148.4343548607132 246.46893784457316 L 148.96193276256244 245.985501766386 L 149.4809931888189 245.4929318138847 L 149.99137802864846 244.99137802864846 L 150.4929318138847 244.4809931888189 L 150.985501766386 243.96193276256244 L 151.46893784457316 243.4343548607132 L 151.94309278913366 242.8984201886108 L 152.4078221678781 242.3542919971481 L 152.8629844197358 241.80213603304333 L 153.30844089787558 241.242120488352 L 153.744055911939 240.67441594923397 L 154.16969676937285 240.0991953439914 L 154.58523381584865 239.51663389039288 L 154.9905404747567 238.92690904230062 L 155.38549328576238 238.33020043561612 L 155.76997194241346 237.7266898335614 L 156.14385932878662 237.11656107131222 L 156.507041555162 236.5 L 156.85940799271523 235.87719443009982 L 157.200851307216 235.24833407422153 L 157.5312674917231 234.61361048932142 L 157.85055589826584 233.97321701835216 L 158.15861926850266 233.3273487313687 L 158.45536376334664 232.67620236610782 L 158.74069899155006 232.01997626806022 L 159.01453803723828 231.35887033005238 L 159.27679748638528 230.6930859313573 L 159.52739745222226 230.0228258763524 L 159.76626159957198 229.34829433274342 L 159.9933171681013 228.66969676937285 L 160.20849499448445 227.9872398936322 L 160.4117295334711 227.30113158849696 L 160.6029588778518 226.61158084920334 L 160.78212477731586 225.91879771958637 L 160.94917265619466 225.22299322809846 L 161.10405163008602 224.52437932352814 L 161.24671452135422 223.82316881043835 L 161.37711787350054 223.11957528434414 L 161.49522196440066 222.41381306664945 L 161.6009908184044 221.70609713936267 L 161.6943922172942 220.99664307961103 L 161.7753977100992 220.2856669939738 L 161.84398262176157 219.57338545265398 L 161.90012606065278 218.86001542350914 L 161.94381092493754 218.1457742059607 L 161.97502390778294 217.43087936480254 L 161.99375550141204 216.71554866392862 L 162 216 L 180 216 L 180 216 Z" fill-opacity="1"></path><path fill="rgb(0,143,92)" stroke="none" paint-order="stroke fill markers" d=" M 162 216 C 162 211.0294372518 166.0294372518 207 171 207 C 175.9705627482 207 180 211.0294372518 180 216 C 180 220.9705627482 175.9705627482 225 171 225 C 166.0294372518 225 162 220.9705627482 162 216" fill-opacity="1"></path><path fill="rgb(0,143,92)" stroke="none" paint-order="stroke fill markers" d=" M 112 266 C 112 261.0294372518 116.0294372518 257 121 257 C 125.97056274820001 257 130 261.0294372518 130 266 C 130 270.9705627482 125.97056274820001 275 121 275 C 116.0294372518 275 112 270.9705627482 112 266" fill-opacity="1"></path></g><g><path fill="rgb(0,143,92)" stroke="none" paint-order="stroke fill markers" d=" M 121 275 L 101 275 L 101 257 L 121 257 L 121 275 Z" fill-opacity="1"></path><path fill="rgb(0,143,92)" stroke="none" paint-order="stroke fill markers" d=" M 130 266 C 130 270.9705627482 125.9705627482 275 121 275 C 116.0294372518 275 112 270.9705627482 112 266 C 112 261.0294372518 116.0294372518 257 121 257 C 125.9705627482 257 130 261.0294372518 130 266" fill-opacity="1"></path><path fill="rgb(0,143,92)" stroke="none" paint-order="stroke fill markers" d=" M 110 266 C 110 270.9705627482 105.9705627482 275 101 275 C 96.0294372518 275 92 270.9705627482 92 266 C 92 261.0294372518 96.0294372518 257 101 257 C 105.9705627482 257 110 261.0294372518 110 266" fill-opacity="1"></path></g><g><path fill="rgb(0,143,92)" stroke="none" paint-order="stroke fill markers" d=" M 101 275 L 99.97030802020028 274.99101401422706 L 98.94092969455244 274.96405879412663 L 97.91217858166631 274.91914255051984 L 96.88436804909661 274.85627896532964 L 95.85781117788817 274.775487187413 L 94.83282066720844 274.6767918267281 L 93.80970873909631 274.560222946838 L 92.78878704335614 274.42581605575265 L 91.77036656262638 274.27361209511315 L 90.75475751765111 274.1036574277203 L 89.74226927278386 273.91600382341215 L 88.7332102417522 273.71070844329455 L 87.72788779371196 273.48783382232887 L 86.7266081596196 273.2474478502838 L 85.72967633895126 272.98962375105503 L 84.73739600679706 272.7144400603608 L 83.75006942135853 272.4219806018191 L 82.7679973318781 272.1123344614141 L 81.79147888702775 271.7855959603597 L 80.82081154378554 271.4418646263686 L 79.85629097682728 271.0812451633349 L 78.89821098846119 270.7038474194405 L 77.94686341913285 270.309786353694 L 77.00253805852779 269.89918200091347 L 76.06552255729873 269.4721594351623 L 75.13610233944442 269.02884873165084 L 74.21456051536674 268.5693849271137 L 73.30117779563244 268.09390797867667 L 72.39623240546612 267.60256272122433 L 71.50000000000001 267.0954988232819 L 70.6127535803068 266.57287074142465 L 69.73476341024092 266.03483767322916 L 68.8662969341134 265.48156350878 L 68.00761869522594 264.91321678074746 L 67.15899025528827 264.32997061305053 L 66.32067011474409 263.7320026681219 L 65.49291363402915 263.11949509279026 L 64.67597295578616 262.4926344627966 L 63.8700969280596 261.8516117259613 L 63.075531028494176 261.1966221440197 L 62.292517289560074 260.52786523314353 L 61.521294224827365 259.84554470316624 L 60.762096756312594 259.1498683955311 L 60.01515614291915 258.4410482199804 L 59.2806999099937 257.7193000900063 L 58.55895178001958 256.9848438570808 L 57.85013160446894 256.2379032436874 L 57.15445529683375 255.47870577517264 L 56.47213476685645 254.70748271043993 L 55.8033778559803 253.92446897150583 L 55.148388274038716 253.12990307194042 L 54.507365537203405 252.32402704421384 L 53.88050490720972 251.50708636597085 L 53.26799733187811 250.67932988525592 L 52.67002938694948 249.8410097447117 L 52.086783219252546 248.99238130477409 L 51.51843649121999 248.1337030658866 L 50.965162326770866 247.2652365897591 L 50.42712925857538 246.3872464196932 L 49.904501176718114 245.5 L 49.39743727877565 244.6037675945339 L 48.90609202132331 243.69882220436756 L 48.4306150728863 242.78543948463326 L 47.971151268349146 241.86389766055555 L 47.52784056483765 240.93447744270128 L 47.10081799908656 239.99746194147224 L 46.69021364630602 239.05313658086715 L 46.29615258055955 238.1017890115388 L 45.918754836665094 237.1437090231727 L 45.55813537363141 236.17918845621446 L 62.47260254777776 230.0228258763524 L 62.72320251361473 230.6930859313573 L 62.98546196276172 231.3588703300524 L 63.259301008449945 232.01997626806022 L 63.54463623665337 232.67620236610782 L 63.84138073149735 233.3273487313687 L 64.14944410173416 233.97321701835216 L 64.46873250827693 234.61361048932142 L 64.799148692784 235.24833407422153 L 65.14059200728477 235.87719443009982 L 65.49295844483801 236.5 L 65.8561406712134 237.11656107131222 L 66.23002805758654 237.7266898335614 L 66.61450671423762 238.33020043561612 L 67.0094595252433 238.92690904230062 L 67.41476618415133 239.51663389039288 L 67.83030323062715 240.0991953439914 L 68.255944088061 240.67441594923397 L 68.6915591021244 241.242120488352 L 69.13701558026419 241.80213603304333 L 69.5921778321219 242.35429199714812 L 70.05690721086634 242.8984201886108 L 70.53106215542684 243.4343548607132 L 71.014498233614 243.96193276256244 L 71.5070681861153 244.48099318881887 L 72.00862197135156 244.99137802864846 L 72.5190068111811 245.4929318138847 L 73.03806723743756 245.985501766386 L 73.56564513928681 246.46893784457316 L 74.1015798113892 246.94309278913366 L 74.64570800285189 247.4078221678781 L 75.19786396695667 247.86298441973582 L 75.75787951164801 248.3084408978756 L 76.32558405076603 248.744055911939 L 76.9008046560086 249.16969676937285 L 77.4833661096071 249.58523381584865 L 78.07309095769938 249.9905404747567 L 78.6697995643839 250.38549328576238 L 79.2733101664386 250.76997194241346 L 79.88343892868778 251.14385932878662 L 80.50000000000001 251.507041555162 L 81.12280556990018 251.85940799271523 L 81.75166592577847 252.200851307216 L 82.38638951067858 252.5312674917231 L 83.02678298164783 252.85055589826584 L 83.67265126863133 253.15861926850266 L 84.32379763389218 253.45536376334664 L 84.98002373193978 253.74069899155006 L 85.6411296699476 254.01453803723828 L 86.30691406864268 254.27679748638528 L 86.97717412364759 254.52739745222226 L 87.65170566725658 254.76626159957198 L 88.33030323062715 254.9933171681013 L 89.0127601063678 255.20849499448445 L 89.69886841150304 255.4117295334711 L 90.38841915079665 255.6029588778518 L 91.08120228041362 255.78212477731586 L 91.77700677190154 255.94917265619466 L 92.47562067647186 256.104051630086 L 93.17683118956167 256.2467145213542 L 93.88042471565586 256.37711787350054 L 94.58618693335053 256.4952219644006 L 95.29390286063732 256.6009908184044 L 96.00335692038895 256.6943922172942 L 96.71433300602621 256.7753977100992 L 97.426614547346 256.8439826217616 L 98.13998457649086 256.9001260606528 L 98.85422579403931 256.9438109249375 L 99.56912063519746 256.97502390778294 L 100.28445133607137 256.993755501412 L 101 257 L 101 275 L 101 275 Z" fill-opacity="1"></path><path fill="rgb(0,143,92)" stroke="none" paint-order="stroke fill markers" d=" M 92 266 C 92 261.0294372518 96.0294372518 257 101 257 C 105.97056274820001 257 110 261.0294372518 110 266 C 110 270.9705627482 105.97056274820001 275 101 275 C 96.0294372518 275 92 270.9705627482 92 266" fill-opacity="1"></path><path fill="rgb(0,143,92)" stroke="none" paint-order="stroke fill markers" d=" M 45.015368960704585 233.10100716628344 C 45.015368960704585 228.13044441808344 49.04480621250458 224.10100716628344 54.015368960704585 224.10100716628344 C 58.98593170890459 224.10100716628344 63.015368960704585 228.13044441808344 63.015368960704585 233.10100716628344 C 63.015368960704585 238.07156991448343 58.98593170890459 242.10100716628344 54.015368960704585 242.10100716628344 C 49.04480621250458 242.10100716628344 45.015368960704585 238.07156991448343 45.015368960704585 233.10100716628344" fill-opacity="1"></path></g><g><path fill="rgb(0,143,92)" stroke="none" paint-order="stroke fill markers" d=" M 171 16 L 256 16 L 256 34 L 171 34 L 171 16 Z" fill-opacity="1"></path><path fill="rgb(0,143,92)" stroke="none" paint-order="stroke fill markers" d=" M 162 25 C 162 20.0294372518 166.0294372518 16 171 16 C 175.9705627482 16 180 20.0294372518 180 25 C 180 29.9705627482 175.9705627482 34 171 34 C 166.0294372518 34 162 29.9705627482 162 25" fill-opacity="1"></path><path fill="rgb(0,143,92)" stroke="none" paint-order="stroke fill markers" d=" M 247 25 C 247 20.0294372518 251.0294372518 16 256 16 C 260.9705627482 16 265 20.0294372518 265 25 C 265 29.9705627482 260.9705627482 34 256 34 C 251.0294372518 34 247 29.9705627482 247 25" fill-opacity="1"></path></g><path fill="rgb(0,143,92)" stroke="none" paint-order="stroke fill markers" d=" M 236 25 C 236 13.954305004 244.954305004 5 256 5 C 267.045694996 5 276 13.954305004 276 25 C 276 36.045694996 267.045694996 45 256 45 C 244.954305004 45 236 36.045694996 236 25" fill-opacity="1"></path><g><path fill="rgb(0,143,92)" stroke="none" paint-order="stroke fill markers" d=" M 171 111.5 L 256 111.5 L 256 129.5 L 171 129.5 L 171 111.5 Z" fill-opacity="1"></path><path fill="rgb(0,143,92)" stroke="none" paint-order="stroke fill markers" d=" M 162 120.5 C 162 115.5294372518 166.0294372518 111.5 171 111.5 C 175.9705627482 111.5 180 115.5294372518 180 120.5 C 180 125.4705627482 175.9705627482 129.5 171 129.5 C 166.0294372518 129.5 162 125.4705627482 162 120.5" fill-opacity="1"></path><path fill="rgb(0,143,92)" stroke="none" paint-order="stroke fill markers" d=" M 247 120.5 C 247 115.5294372518 251.0294372518 111.5 256 111.5 C 260.9705627482 111.5 265 115.5294372518 265 120.5 C 265 125.4705627482 260.9705627482 129.5 256 129.5 C 251.0294372518 129.5 247 125.4705627482 247 120.5" fill-opacity="1"></path></g><path fill="rgb(0,143,92)" stroke="none" paint-order="stroke fill markers" d=" M 236 120.5 C 236 109.454305004 244.954305004 100.5 256 100.5 C 267.045694996 100.5 276 109.454305004 276 120.5 C 276 131.545694996 267.045694996 140.5 256 140.5 C 244.954305004 140.5 236 131.545694996 236 120.5" fill-opacity="1"></path><g><path fill="rgb(0,143,92)" stroke="none" paint-order="stroke fill markers" d=" M 171 207 L 256 207 L 256 225 L 171 225 L 171 207 Z" fill-opacity="1"></path><path fill="rgb(0,143,92)" stroke="none" paint-order="stroke fill markers" d=" M 162 216 C 162 211.0294372518 166.0294372518 207 171 207 C 175.9705627482 207 180 211.0294372518 180 216 C 180 220.9705627482 175.9705627482 225 171 225 C 166.0294372518 225 162 220.9705627482 162 216" fill-opacity="1"></path><path fill="rgb(0,143,92)" stroke="none" paint-order="stroke fill markers" d=" M 247 216 C 247 211.0294372518 251.0294372518 207 256 207 C 260.9705627482 207 265 211.0294372518 265 216 C 265 220.9705627482 260.9705627482 225 256 225 C 251.0294372518 225 247 220.9705627482 247 216" fill-opacity="1"></path></g><path fill="rgb(0,143,92)" stroke="none" paint-order="stroke fill markers" d=" M 236 216 C 236 204.954305004 244.954305004 196 256 196 C 267.045694996 196 276 204.954305004 276 216 C 276 227.045694996 267.045694996 236 256 236 C 244.954305004 236 236 227.045694996 236 216" fill-opacity="1"></path><g><path fill="rgb(0,143,92)" stroke="none" paint-order="stroke fill markers" d=" M 171 66.5 L 206 66.5 L 206 84.5 L 171 84.5 L 171 66.5 Z" fill-opacity="1"></path><path fill="rgb(0,143,92)" stroke="none" paint-order="stroke fill markers" d=" M 162 75.5 C 162 70.5294372518 166.0294372518 66.5 171 66.5 C 175.9705627482 66.5 180 70.5294372518 180 75.5 C 180 80.4705627482 175.9705627482 84.5 171 84.5 C 166.0294372518 84.5 162 80.4705627482 162 75.5" fill-opacity="1"></path><path fill="rgb(0,143,92)" stroke="none" paint-order="stroke fill markers" d=" M 197 75.5 C 197 70.5294372518 201.0294372518 66.5 206 66.5 C 210.9705627482 66.5 215 70.5294372518 215 75.5 C 215 80.4705627482 210.9705627482 84.5 206 84.5 C 201.0294372518 84.5 197 80.4705627482 197 75.5" fill-opacity="1"></path></g><g><path fill="rgb(0,143,92)" stroke="none" paint-order="stroke fill markers" d=" M 171 156.5 L 206 156.5 L 206 174.5 L 171 174.5 L 171 156.5 Z" fill-opacity="1"></path><path fill="rgb(0,143,92)" stroke="none" paint-order="stroke fill markers" d=" M 162 165.5 C 162 160.5294372518 166.0294372518 156.5 171 156.5 C 175.9705627482 156.5 180 160.5294372518 180 165.5 C 180 170.4705627482 175.9705627482 174.5 171 174.5 C 166.0294372518 174.5 162 170.4705627482 162 165.5" fill-opacity="1"></path><path fill="rgb(0,143,92)" stroke="none" paint-order="stroke fill markers" d=" M 197 165.5 C 197 160.5294372518 201.0294372518 156.5 206 156.5 C 210.9705627482 156.5 215 160.5294372518 215 165.5 C 215 170.4705627482 210.9705627482 174.5 206 174.5 C 201.0294372518 174.5 197 170.4705627482 197 165.5" fill-opacity="1"></path></g></g></svg>