<?xml version="1.0" encoding="UTF-8" standalone="no"?>
<svg
   viewBox="0 0 1000 1001.0101"
   version="1.1"
   id="svg1"
   sodipodi:docname="gears.svg"
   inkscape:version="1.4.2 (f4327f4, 2025-05-13)"
   xmlns:inkscape="http://www.inkscape.org/namespaces/inkscape"
   xmlns:sodipodi="http://sodipodi.sourceforge.net/DTD/sodipodi-0.dtd"
   xmlns="http://www.w3.org/2000/svg"
   xmlns:svg="http://www.w3.org/2000/svg">
  <defs
     id="defs1" />
  <sodipodi:namedview
     id="namedview1"
     pagecolor="#ffffff"
     bordercolor="#000000"
     borderopacity="0.25"
     inkscape:showpageshadow="2"
     inkscape:pageopacity="0.0"
     inkscape:pagecheckerboard="0"
     inkscape:deskcolor="#d1d1d1"
     inkscape:zoom="0.77222"
     inkscape:cx="500.50504"
     inkscape:cy="500.50504"
     inkscape:window-width="1920"
     inkscape:window-height="991"
     inkscape:window-x="-9"
     inkscape:window-y="-9"
     inkscape:window-maximized="1"
     inkscape:current-layer="svg1" />
  <path
     d="m578 649.456c-4-2-5-5-5-9v-31c0-2 2-5 4-7l21-12c15-9 29-17 45-26-6-17-11-33-17-50-2-6-5-6-11-6-22 3-44 5-66 7-4 0-7-1-9-4-6-9-12-17-19-25-2-3-3-5-1-8 4-7 7-14 10-22 7-15 14-31 21-47-15-11-31-21-45-32-4-2-6-1-9 1-17 15-35 30-52 46-3 2-6 3-9 1-10-3-19-6-29-9-5-1-7-3-8-8-5-23-10-47-16-71h-60c-6 25-11 48-17 72 0 4-3 6-7 7-9 3-19 6-28 9-5 2-7 1-10-2-18-15-35-30-53-45-1-1-5-2-7-1-15 10-31 21-46 32 10 23 20 46 30 68 2 4 2 7-1 10-6 7-11 13-15 20s-9 8-16 8c-22-3-44-5-66-7-2 0-5 1-6 3-6 17-12 35-18 53 3 2 5 3 7 4 19 11 39 22 58 33 4 2 5 5 5 9v30c0 4-1 7-5 9-19 11-39 22-58 33-2 1-4 3-7 5 6 16 11 33 17 49 2 6 5 6 10 6l67-7c4 0 7 1 10 5 5 7 10 15 16 22 4 4 4 8 2 13-10 21-20 43-30 66 16 11 31 22 47 32 1 1 5 0 7-1 17-15 35-30 52-45 3-3 6-4 10-2 9 3 18 6 28 9 4 1 7 3 8 8 5 24 10 47 16 71h60c6-24 11-48 17-71 1-5 2-7 7-8 10-3 19-6 29-9 4-2 6-1 10 2 17 15 34 30 52 45 1 1 5 2 6 1 16-10 32-21 47-32-10-23-20-46-30-68-2-4-1-7 1-10 6-7 12-13 16-21 4-7 9-7 16-7 22 3 43 5 65 7 2 0 6-2 6-4 7-17 13-34 19-52l-8-4c-20-11-39-22-58-33zm-230 71c-51-2-93-46-92-97 2-54 46-94 102-92 51 1 93 45 92 97-2 53-47 93-102 92zm349-304c3 15 7 30 10 46h40c3-16 7-31 10-47 1-3 2-4 5-5 6-1 13-3 19-6 3-1 4 0 6 2 12 10 23 19 34 29 1 1 4 1 5 1l30-21c-7-15-13-30-20-44-1-3-1-5 1-7 4-4 8-8 10-13 3-5 6-5 11-5 14 2 28 3 42 4 2 0 4-1 4-2 4-11 8-23 12-34-2-1-3-2-5-3-12-7-25-14-38-22-2-1-3-2-3-5 1-7 0-14 1-20 0-2 1-4 2-5 5-3 9-5 14-8 10-5 19-11 29-17-3-11-7-21-11-32-1-4-3-4-7-4-14 2-29 3-43 4-3 1-5 0-6-2-4-6-8-11-12-16-2-2-2-4-1-6 2-4 4-9 6-14 5-10 9-20 14-31-10-7-20-14-29-20-3-2-4-1-6 0l-34 30c-2 2-4 2-6 1-6-2-12-4-19-6-3-1-4-2-5-5-3-16-7-31-10-47h-40c-3 16-7 32-10 47-1 3-2 4-5 5-6 1-12 3-19 6-2 1-4 0-6-2-11-9-23-19-34-29-1-1-4-1-5-1l-30 21c7 15 13 30 20 44 1 3 1 5-1 7-4 4-8 8-10 13-3 5-6 6-11 5-14-2-28-3-42-4-1 0-4 1-4 2-4 11-8 22-12 34 2 1 3 2 4 3l39 21c2 2 3 3 3 6-1 7-1 13 0 20 0 2-1 4-3 5-13 7-26 15-38 22-2 1-3 2-5 3 4 11 8 22 11 32 1 4 3 4 7 4 14-2 29-3 43-4 3-1 5 0 7 3 3 5 6 10 10 14 3 3 3 5 1 9-6 14-12 28-19 43l30 21c1 0 4 0 5-1 11-10 23-20 34-29 2-2 4-3 6-2 6 3 13 5 19 6 3 1 4 2 5 6zm-33-143c1-35 30-61 66-60 34 0 61 29 60 63s-30 61-66 60c-33-1-61-30-60-63zm270 389c-9-5-17-10-26-15-2-1-3-2-2-4 0-5-1-10 0-14 0-1 1-3 1-3 4-3 7-4 10-6 7-4 13-8 20-12-2-8-5-15-7-22-1-3-3-3-5-3l-30 3c-2 0-3 0-5-2-2-4-5-8-8-11-1-1-1-3 0-4 1-3 3-7 4-10 3-7 6-14 10-22-7-4-14-9-21-14-2-1-3 0-4 1l-24 20c-1 2-2 2-4 1-4-2-9-3-13-4-2-1-3-2-3-4-3-10-5-21-8-32h-27c-3 11-5 22-7 33-1 2-2 2-4 3-4 1-8 2-13 4-2 1-3 0-4-1-8-7-16-14-24-20-1-1-2-1-3-1-7 5-14 10-21 14 5 11 9 21 14 31 0 2 0 4-1 5-3 3-5 6-7 9-2 4-4 4-7 4-10-2-20-2-30-3-1 0-2 0-3 1-3 8-5 16-8 24 1 1 2 1 3 2l27 15c1 1 2 2 2 4v13c0 2-1 4-2 4-9 5-18 10-27 16-1 0-2 1-3 2 2 7 5 15 8 22 0 3 2 3 4 3 10-1 21-2 31-3 2-1 3 0 4 2 2 3 5 7 7 10 2 2 2 3 1 6-4 9-9 19-13 30 7 5 14 10 21 14 1 1 2 0 3 0l24-21c1-1 2-1 4-1 4 2 9 3 13 5 2 0 3 1 4 3 2 11 4 22 7 33h28c2-11 5-22 7-33 0-2 1-3 3-3 5-2 9-3 13-4 2-1 3-1 5 0 8 7 16 14 23 21 1 1 3 1 3 1 8-5 15-10 22-15-5-11-10-21-14-31-1-2-1-3 0-5 3-3 6-6 8-9 1-3 4-3 7-3 10 1 20 2 29 3 1 0 3-1 3-2 3-8 6-16 9-23-2-1-3-2-4-2zm-130 17c-24-1-43-21-42-44 0-24 20-43 46-42 23 1 42 21 42 44-1 24-21 43-46 42z"
     id="path1"
     style="fill:#1B5D3E;fill-opacity:1" />
  <path
     style="fill:#1B5D3E;stroke-width:1.29497;fill-opacity:1"
     d="m 322.49749,908.12027 c -0.75873,-2.68414 -4.61729,-19.43761 -8.57455,-37.22989 -3.95728,-17.7923 -7.78451,-33.05988 -8.50494,-33.92795 -1.25263,-1.50934 -36.36865,-13.38685 -39.53068,-13.37071 -0.83793,0.004 -14.38384,11.07974 -30.10201,24.61216 -15.71818,13.53241 -29.6899,24.60438 -31.04825,24.60438 -2.17379,0 -19.63461,-11.17972 -41.6898,-26.69293 l -7.24101,-5.0932 15.33455,-33.62418 c 9.29299,-20.37678 15.33456,-35.24251 15.33456,-37.73181 0,-2.79739 -1.57314,-6.10678 -4.93181,-10.37501 -2.71249,-3.44706 -7.38699,-9.89609 -10.38778,-14.33117 -4.04404,-5.97698 -6.5156,-8.33837 -9.55049,-9.12479 -3.69811,-0.95827 -11.42518,-0.32621 -67.072634,5.48647 -6.115452,0.6388 -9.043652,0.41127 -10.707751,-0.83202 -1.305472,-0.97535 -6.087525,-12.69674 -11.12004,-27.25655 l -8.829581,-25.5453 4.645202,-3.14396 c 2.554861,-1.72919 16.299912,-9.69145 30.544557,-17.69391 14.244647,-8.00248 27.793247,-15.95459 30.107997,-17.67137 l 4.20865,-3.12142 v -20.5596 c 0,-20.44832 -0.0177,-20.57353 -3.27353,-23.13455 -1.80044,-1.41622 -17.46538,-10.61088 -34.81098,-20.43258 L 63.759718,564.07276 70.646454,543.9436 c 3.787704,-11.07103 7.856387,-22.90791 9.041517,-26.3042 1.18513,-3.39627 3.211899,-6.7408 4.503933,-7.43227 2.09325,-1.12028 42.315126,2.06864 58.543306,4.64151 7.53534,1.19467 16.45301,0.90118 20.23654,-0.66601 1.89926,-0.7867 5.01915,-3.89462 6.9331,-6.90649 1.91395,-3.01188 6.42529,-9.12117 10.0252,-13.57621 4.07591,-5.0441 6.54531,-9.35938 6.54531,-11.43799 0,-2.55991 -24.26779,-59.9263 -29.82355,-70.49959 -0.80975,-1.54107 3.88182,-5.40336 21.16875,-17.42697 12.21498,-8.49592 23.67555,-15.63039 25.46793,-15.85438 2.62163,-0.32762 8.91082,4.40946 32.16312,24.22555 15.89734,13.54804 29.60791,24.63281 30.46792,24.63281 0.86001,0 9.87633,-2.64969 20.03626,-5.8882 14.68748,-4.68169 18.7201,-6.47276 19.68048,-8.74104 0.66434,-1.56905 4.74191,-18.00395 9.06128,-36.52199 4.31936,-18.51804 8.16062,-34.68895 8.53615,-35.93535 0.62377,-2.07041 3.18586,-2.2662 29.65585,-2.2662 15.9352,0 29.25147,0.45044 29.59172,1.00097 0.34024,0.55053 4.2448,17.30418 8.67679,37.23032 4.43199,19.92615 8.59438,36.91501 9.24975,37.75304 0.65537,0.83802 8.00286,3.64526 16.32776,6.23832 8.32489,2.59305 16.92867,5.33853 19.11948,6.10105 3.05618,1.06371 4.75226,0.96805 7.28698,-0.41097 1.81701,-0.98855 15.37699,-12.43229 30.13328,-25.43053 14.75629,-12.99824 27.52594,-23.63316 28.377,-23.63316 1.07918,0 45.54013,30.25567 48.25508,32.83758 0.26202,0.24917 -22.93137,52.41276 -28.07053,63.1326 -4.89451,10.20954 -5.24062,9.21796 10.0908,28.90928 6.3357,8.13742 11.20598,13.17424 13.25376,13.70696 3.46587,0.90162 13.15239,0.11848 49.61226,-4.01114 12.68597,-1.43687 24.19562,-2.25377 25.57699,-1.81535 3.49635,1.1097 4.40431,3.15166 13.50346,30.36834 l 8.04614,24.06702 -32.42633,18.74081 c -17.83449,10.30744 -33.482,19.87047 -34.77227,21.25117 -2.04435,2.18767 -2.34592,4.95754 -2.34592,21.54726 0,16.25002 0.33175,19.42768 2.26619,21.70654 2.1236,2.50169 49.68527,30.20936 62.75897,36.56105 l 5.94794,2.88973 -5.57205,15.66608 c -8.89762,25.01607 -13.5979,36.26696 -15.88119,38.01422 -1.3383,1.02411 -4.31466,1.38204 -8.01828,0.96426 -56.38237,-6.36022 -66.63835,-7.02264 -71.17104,-4.59681 -1.4211,0.76054 -4.61526,4.43623 -7.09811,8.16819 -2.48286,3.73195 -7.17195,9.89231 -10.4202,13.68968 -3.24825,3.79738 -5.90591,8.21444 -5.90591,9.81569 0,1.60124 6.91678,18.57504 15.37062,37.71955 l 15.37062,34.80819 -5.33462,4.04628 c -11.40153,8.64803 -40.98371,27.78546 -42.95008,27.78546 -2.18663,0 -8.21254,-4.89688 -37.29277,-30.30548 -21.24363,-18.56145 -23.16442,-19.76104 -28.61252,-17.8694 -2.17886,0.75653 -10.77654,3.47804 -19.10594,6.0478 -12.23226,3.77387 -15.33077,5.22301 -16.11383,7.53633 -0.53321,1.57523 -4.81463,18.88927 -9.51428,38.47566 l -8.54481,35.61161 -29.33872,0.34788 -29.33874,0.34788 z m 45.72893,-188.76843 c 23.02915,-4.01594 41.20962,-13.71296 56.81901,-30.30583 30.17256,-32.07363 33.87758,-78.4182 9.24215,-115.6066 -13.43031,-20.27375 -36.6948,-36.04981 -59.97486,-40.67002 -12.91443,-2.56303 -34.98089,-1.95215 -47.33336,1.31036 -28.41979,7.50617 -53.97717,29.6684 -64.72983,56.13089 -19.90095,48.97652 6.13511,106.37591 56.6067,124.79577 17.60919,6.42656 30.78562,7.58631 49.37019,4.34543 z"
     id="path2" />
</svg>
