<svg version="1.1" xmlns="http://www.w3.org/2000/svg" xmlns:xlink="http://www.w3.org/1999/xlink" width="400" height="340" viewBox="0 0 400 340"><defs></defs><g><path fill="none" stroke="none"></path><path fill="rgb(34,102,170)" stroke="none" paint-order="stroke fill markers" d=" M 100 0 L 300 0 L 300 0 A 100 100 0 0 1 400 100 L 400 290 L 400 290 A 50 50 0 0 1 350 340 L 50 340 L 50 340 A 50 50 0 0 1 0 290 L 0 100 L 0 100.00000000000001 A 100 100 0 0 1 100 0 Z" fill-opacity="1"></path><path fill="none" stroke="none"></path><path fill="rgb(14,62,111)" stroke="none" paint-order="stroke fill markers" d=" M 0 290 L 400 290 L 400 315 L 400 315 A 25 25 0 0 1 375 340 L 25 340 L 25 340 A 25 25 0 0 1 0 315 L 0 290 Z" fill-opacity="1"></path><g><path fill="rgb(245,245,245)" stroke="none" paint-order="stroke fill markers" d=" M 111.5999984741211 265 C 111.5999984741211 278.80711874576986 122.79287972835127 290 136.5999984741211 290 L 263.3999984741211 290 C 277.20711721989096 290 288.3999984741211 278.80711874576986 288.3999984741211 265 L 288.3999984741211 192.76 C 288.3999984741211 187.8778028114958 292.3578012856169 183.92000000000002 297.2399984741211 183.92000000000002 L 294.825784911748 183.92000000000002 C 295.0910014015875 183.92000000000002 295.72042807138257 182.40042959726148 295.5328916929345 182.21289321881346 L 217.6776680037848 104.3576695296637 C 207.91456071000303 94.59456223588194 192.08543623823917 94.59456223588194 182.3223289444574 104.3576695296637 L 104.46710525530764 182.21289321881346 C 104.2795688768596 182.40042959726148 104.90899554665464 183.92000000000002 105.17421203649418 183.92000000000002 L 102.75999847412109 183.92000000000002 C 107.64219566262531 183.92000000000002 111.5999984741211 187.8778028114958 111.5999984741211 192.76 L 111.5999984741211 265 L 111.5999984741211 265 Z" fill-opacity="1"></path><g><path fill="rgb(245,245,245)" stroke="none" paint-order="stroke fill markers" d=" M 208.37046402246486 77.39638712359294 L 316.2184640224649 174.63638712359295 L 299.4775359775352 193.20359822796956 L 191.62953597753514 95.96359822796956 L 208.37046402246486 77.39638712359294 Z" fill-opacity="1"></path><path fill="rgb(245,245,245)" stroke="none" paint-order="stroke fill markers" d=" M 190.7163944478117 78.30952865331639 C 195.3392740761686 73.18233488368419 203.24327025283264 72.77350749523605 208.37046402246486 77.39638712359294 C 213.49765779209707 82.01926675194986 213.90648518054522 89.92326292861391 209.2836055521883 95.05045669824611 C 204.6607259238314 100.17765046787831 196.75672974716736 100.58647785632645 191.62953597753514 95.96359822796956 C 186.50234220790293 91.34071859961264 186.09351481945478 83.43672242294859 190.7163944478117 78.30952865331639" fill-opacity="1"></path><path fill="rgb(245,245,245)" stroke="none" paint-order="stroke fill markers" d=" M 298.5643944478117 175.5495286533164 C 303.1872740761686 170.4223348836842 311.09127025283266 170.013507495236 316.2184640224649 174.63638712359295 C 321.3456577920971 179.25926675194987 321.7544851805452 187.1632629286139 317.1316055521883 192.29045669824612 C 312.50872592383143 197.41765046787833 304.60472974716737 197.82647785632648 299.4775359775352 193.20359822796956 C 294.35034220790294 188.58071859961262 293.9415148194548 180.67672242294861 298.5643944478117 175.5495286533164" fill-opacity="1"></path></g><g><path fill="rgb(245,245,245)" stroke="none" paint-order="stroke fill markers" d=" M 208.37046402246486 95.96359822796956 L 100.52246402246483 193.20359822796954 L 83.78153597753511 174.63638712359293 L 191.62953597753514 77.39638712359294 L 208.37046402246486 95.96359822796956 Z" fill-opacity="1"></path><path fill="rgb(245,245,245)" stroke="none" paint-order="stroke fill markers" d=" M 209.2836055521883 78.30952865331639 C 213.9064851805452 83.4367224229486 213.49765779209707 91.34071859961264 208.37046402246486 95.96359822796956 C 203.24327025283264 100.58647785632645 195.3392740761686 100.17765046787831 190.7163944478117 95.05045669824611 C 186.0935148194548 89.9232629286139 186.50234220790293 82.01926675194986 191.62953597753514 77.39638712359294 C 196.75672974716736 72.77350749523605 204.6607259238314 73.18233488368419 209.2836055521883 78.30952865331639" fill-opacity="1"></path><path fill="rgb(245,245,245)" stroke="none" paint-order="stroke fill markers" d=" M 101.43560555218828 175.54952865331637 C 106.05848518054518 180.6767224229486 105.64965779209705 188.58071859961262 100.52246402246483 193.20359822796954 C 95.39527025283262 197.82647785632645 87.49127407616858 197.41765046787827 82.86839444781168 192.2904566982461 C 78.24551481945478 187.1632629286139 78.6543422079029 179.25926675194984 83.78153597753511 174.63638712359293 C 88.90872974716733 170.013507495236 96.81272592383138 170.4223348836842 101.43560555218828 175.54952865331637" fill-opacity="1"></path></g><g><path fill="rgb(245,245,245)" stroke="none" paint-order="stroke fill markers" d=" M 307.8479995727539 196.4199981689453 L 92.15199957275388 196.41999816894534 L 92.15199957275388 171.41999816894534 L 307.8479995727539 171.4199981689453 L 307.8479995727539 196.4199981689453 Z" fill-opacity="1"></path><path fill="rgb(245,245,245)" stroke="none" paint-order="stroke fill markers" d=" M 320.3479995727539 183.9199981689453 C 320.3479995727539 190.8235575414453 314.7515589452539 196.4199981689453 307.8479995727539 196.4199981689453 C 300.9444402002539 196.4199981689453 295.3479995727539 190.82355754144533 295.3479995727539 183.9199981689453 C 295.3479995727539 177.01643879644533 300.9444402002539 171.4199981689453 307.8479995727539 171.4199981689453 C 314.7515589452539 171.4199981689453 320.3479995727539 177.0164387964453 320.3479995727539 183.9199981689453" fill-opacity="1"></path><path fill="rgb(245,245,245)" stroke="none" paint-order="stroke fill markers" d=" M 104.65199957275388 183.91999816894534 C 104.65199957275388 190.82355754144533 99.05555894525389 196.41999816894534 92.15199957275388 196.41999816894534 C 85.24844020025387 196.41999816894534 79.65199957275388 190.82355754144533 79.65199957275388 183.91999816894534 C 79.65199957275388 177.01643879644533 85.24844020025387 171.41999816894534 92.15199957275388 171.41999816894534 C 99.05555894525389 171.41999816894534 104.65199957275388 177.01643879644533 104.65199957275388 183.91999816894534" fill-opacity="1"></path></g></g><g><path fill="rgb(245,245,245)" stroke="none" paint-order="stroke fill markers" d=" M 295.03232569518974 104.33384175877406 L 294.68087452358907 103.3938429011452 L 294.31307163759027 102.46012087858504 L 293.9290290735153 101.53296011186676 L 293.52886381444955 100.61264302314149 L 293.1126977546074 99.69944994990979 L 292.68065766220207 98.79365905962803 L 292.23287514083114 97.89554626497605 L 291.7694865893883 97.00538513981128 L 291.29063316051526 96.12344683583564 L 290.7964607176052 95.24999999999997 L 290.28711979037143 94.38531069267187 L 289.76276552899446 93.52964230659072 L 289.2235576568619 92.68325548663594 L 288.6696604219149 91.84640805043207 L 288.101242546617 91.01935490981484 L 287.5184771765595 90.20234799318278 L 286.92154182771935 89.39563616875722 L 286.3106183323865 88.59946516877466 L 285.6858927837758 87.81407751463433 L 285.0475554793412 87.03971244302397 L 284.3958008628094 86.27660583304583 L 283.73082746495015 85.52499013436565 L 283.05283784310234 84.78509429640636 L 282.36203851947243 84.05714369860763 L 281.65863991822647 83.3413600817735 L 280.94285630139234 82.63796148052757 L 280.2149057035937 81.9471621568977 L 279.4750098656343 81.26917253504982 L 278.72339416695417 80.60419913719059 L 277.960287556976 79.95244452065876 L 277.18592248536567 79.31410721622419 L 276.40053483122534 78.6893816676135 L 275.6043638312428 78.07845817228065 L 274.7976520068172 77.48152282344051 L 273.98064509018513 76.89875745338297 L 273.15359194956795 76.3303395780851 L 272.31674451336403 75.77644234313811 L 271.47035769340926 75.2372344710055 L 270.6146893073281 74.71288020962854 L 269.75 74.20353928239479 L 268.8765531641644 73.70936683948474 L 267.9946148601887 73.23051341061169 L 267.1044537350239 72.76712485916885 L 266.20634094037194 72.3193423377979 L 265.30055005009024 71.88730224539262 L 264.3873569768585 71.47113618555044 L 263.46703988813323 71.07097092648468 L 262.5398791214149 70.68692836240973 L 261.6061570988548 70.3191254764109 L 260.66615824122596 69.96767430481027 L 255.53585609134092 84.0630636165989 L 256.23063785567524 84.32283187386892 L 256.92078022017625 84.59468618091154 L 257.6060729607941 84.87854372827128 L 258.2863073307215 85.17431805018946 L 258.96127612397976 85.48191905094238 L 259.63077373853577 85.8012530322854 L 260.29459623893075 86.13222272199437 L 260.95254141840036 86.4747273034956 L 261.60440886046933 86.82866244657569 L 262.25 87.19392033916137 L 262.8891181836773 87.57038972016022 L 263.5215687299112 87.9579559133519 L 264.14715898813864 88.35650086231948 L 264.76569839750675 88.76590316641074 L 265.37699854491945 89.18603811771786 L 265.9808732224301 89.61677773906473 L 266.577138483962 90.05799082299004 L 267.1656127013405 90.50954297171432 L 267.7461166196181 90.97129663807874 L 268.3184734116779 91.44311116744342 L 268.88250873209654 91.92484284053218 L 269.43805077025144 92.41634491721072 L 269.9849303026562 92.91746768118526 L 270.5229807445074 93.42805848560732 L 271.0520382004283 93.94796179957171 L 271.5719415143927 94.4770192554926 L 272.08253231881474 95.01506969734382 L 272.5836550827893 95.56194922974854 L 273.07515715946784 96.11749126790343 L 273.5568888325566 96.68152658832207 L 274.02870336192126 97.2538833803819 L 274.4904570282857 97.83438729865952 L 274.94200917700994 98.42286151603795 L 275.38322226093527 99.01912677756988 L 275.8139618822821 99.62300145508053 L 276.23409683358926 100.23430160249328 L 276.6434991376805 100.85284101186136 L 277.0420440866481 101.47843127008879 L 277.4296102798398 102.11088181632269 L 277.80607966083863 102.74999999999999 L 278.17133755342434 103.39559113953068 L 278.5252726965044 104.04745858159964 L 278.86777727800563 104.70540376106925 L 279.1987469677146 105.36922626146419 L 279.5180809490576 106.03872387602028 L 279.82568194981053 106.71369266927849 L 280.12145627172873 107.39392703920586 L 280.40531381908846 108.07921977982373 L 280.67716812613105 108.76936214432472 L 280.93693638340113 109.46414390865908 L 295.03232569518974 104.33384175877406 L 295.03232569518974 104.33384175877406 Z" fill-opacity="1"></path><path fill="rgb(245,245,245)" stroke="none" paint-order="stroke fill markers" d=" M 280.48463103929544 106.89899283371656 C 280.48463103929544 102.75685721021657 283.84249541579544 99.39899283371656 287.98463103929544 99.39899283371656 C 292.12676666279543 99.39899283371656 295.48463103929544 102.75685721021657 295.48463103929544 106.89899283371656 C 295.48463103929544 111.04112845721657 292.12676666279543 114.39899283371656 287.98463103929544 114.39899283371656 C 283.84249541579544 114.39899283371656 280.48463103929544 111.04112845721657 280.48463103929544 106.89899283371656" fill-opacity="1"></path><path fill="rgb(245,245,245)" stroke="none" paint-order="stroke fill markers" d=" M 250.60100716628344 77.01536896070459 C 250.60100716628344 72.87323333720458 253.95887154278344 69.51536896070459 258.10100716628347 69.51536896070459 C 262.24314278978346 69.51536896070459 265.60100716628347 72.87323333720458 265.60100716628347 77.01536896070459 C 265.60100716628347 81.15750458420459 262.24314278978346 84.51536896070459 258.10100716628347 84.51536896070459 C 253.95887154278344 84.51536896070459 250.60100716628344 81.15750458420459 250.60100716628344 77.01536896070459" fill-opacity="1"></path></g><g><path fill="rgb(245,245,245)" stroke="none" paint-order="stroke fill markers" d=" M 327.9215674226965 92.36313674237566 L 327.3561894509911 90.85096466705969 L 326.7645065474278 89.3488901090281 L 326.1466989443507 87.85737061474217 L 325.5029548319406 86.37686051548849 L 324.8334703008901 84.90781078898533 L 324.1384492826729 83.4506689220103 L 323.418103487424 82.00587877409191 L 322.67265233945074 80.5738804423051 L 321.9023229103941 79.15511012721385 L 321.10734985006053 77.74999999999996 L 320.28797531494536 76.35897807081996 L 319.4444488944694 74.98246805842854 L 318.57702753495175 73.62088926111001 L 317.6859754613414 72.27465642895595 L 316.7715640967317 70.94417963752821 L 315.8340719796826 69.6298641629462 L 314.8737846793746 68.33211035843553 L 313.8909947086218 67.05131353237661 L 312.8860014347698 65.78786382788999 L 311.85911098850545 64.5421461039951 L 310.8106361706064 63.314539818378066 L 309.74089635665894 62.10541891180562 L 308.6502173997733 60.91515169421891 L 307.5389315313252 59.74410073254272 L 306.40737725975566 58.59262274024434 L 305.25589926745727 57.46106846867477 L 304.0848483057811 56.349782600226746 L 302.89458108819434 55.25910364334101 L 301.6854601816219 54.18936382939357 L 300.45785389600485 53.14088901149452 L 299.21213617211 52.113998565230204 L 297.9486864676234 51.10900529137824 L 296.66788964156444 50.12621532062539 L 295.37013583705374 49.16592802031735 L 294.05582036247176 48.22843590326826 L 292.7253435710441 47.31402453865864 L 291.37911073888995 46.42297246504826 L 290.0175319415714 45.55555110553058 L 288.64102192918 44.712024685054615 L 287.25 43.89265014993943 L 285.8448898727862 43.09767708960591 L 284.42611955769485 42.327347660549236 L 282.9941212259081 41.581896512575966 L 281.5493310779897 40.86155071732705 L 280.0921892110147 40.16652969910989 L 278.62313948451146 39.4970451680594 L 277.1426293852578 38.853301055649254 L 275.65110989097184 38.23549345257216 L 274.1490353329403 37.64381054900883 L 272.6368632576244 37.078432577303474 L 267.50656110773934 51.17382188909211 L 268.7735160897608 51.647516946466865 L 270.0320109897332 52.14325127107398 L 271.2816624579187 52.66087385743586 L 272.5220898383745 53.20022703269842 L 273.75291528490425 53.761146504659635 L 274.9737638761535 54.34346141181456 L 276.18426372981486 54.94699437540149 L 277.38404611590653 55.571561553433156 L 278.5727455690911 56.21697269669684 L 279.75 56.88303120670601 L 280.9154508055292 57.5695341955863 L 282.0687429780734 58.27627254787697 L 283.20952521366456 59.003030984229625 L 284.3374500189829 59.74958812698428 L 285.4521738172061 60.515716567603135 L 286.5533570526666 61.30118293594156 L 287.64066429428374 62.105747971334786 L 288.71376433773855 62.92916659547906 L 289.7723303063624 63.771187987084765 L 290.8160397507068 64.6315556582792 L 291.8445747467643 65.51000753273516 L 292.85762199281146 66.40627602550191 L 293.85487290484366 67.3200881245143 L 294.8360237105723 68.25116547375453 L 295.8007755419574 69.19922445804255 L 296.74883452624545 70.1639762894277 L 297.67991187548574 71.14512709515638 L 298.59372397449806 72.1423780071885 L 299.4899924672648 73.15542525323568 L 300.36844434172076 74.18396024929318 L 301.2288120129152 75.22766969363757 L 302.07083340452095 76.28623566226149 L 302.89425202866516 77.35933570571626 L 303.6988170640584 78.44664294733332 L 304.48428343239686 79.5478261827939 L 305.25041187301576 80.66254998101715 L 305.99696901577033 81.79047478633541 L 306.723727452123 82.93125702192661 L 307.4304658044137 84.08454919447078 L 308.11696879329395 85.24999999999997 L 308.7830273033032 86.42725443090889 L 309.4284384465668 87.61595388409347 L 310.0530056245985 88.81573627018511 L 310.6565385881854 90.02623612384647 L 311.2388534953404 91.24708471509581 L 311.7997729673016 92.47791016162549 L 312.3391261425641 93.71833754208127 L 312.85674872892605 94.96798901026679 L 313.3524830535331 96.22648391023918 L 313.8261781109079 97.49343889226068 L 327.9215674226965 92.36313674237566 L 327.9215674226965 92.36313674237566 Z" fill-opacity="1"></path><path fill="rgb(245,245,245)" stroke="none" paint-order="stroke fill markers" d=" M 313.3738727668022 94.92828781731816 C 313.3738727668022 90.78615219381817 316.7317371433022 87.42828781731816 320.8738727668022 87.42828781731816 C 325.0160083903022 87.42828781731816 328.3738727668022 90.78615219381817 328.3738727668022 94.92828781731816 C 328.3738727668022 99.07042344081816 325.0160083903022 102.42828781731816 320.8738727668022 102.42828781731816 C 316.7317371433022 102.42828781731816 313.3738727668022 99.07042344081816 313.3738727668022 94.92828781731816" fill-opacity="1"></path><path fill="rgb(245,245,245)" stroke="none" paint-order="stroke fill markers" d=" M 262.57171218268184 44.12612723319779 C 262.57171218268184 39.983991609697796 265.92957655918184 36.62612723319779 270.07171218268184 36.62612723319779 C 274.2138478061819 36.62612723319779 277.57171218268184 39.983991609697796 277.57171218268184 44.12612723319779 C 277.57171218268184 48.26826285669779 274.2138478061819 51.62612723319779 270.07171218268184 51.62612723319779 C 265.92957655918184 51.62612723319779 262.57171218268184 48.26826285669779 262.57171218268184 44.12612723319779" fill-opacity="1"></path></g><g><path fill="none" stroke="none"></path><path fill="none" stroke="rgb(14,62,111)" paint-order="fill stroke markers" d=" M 164.299999833107 198.99999976158142 L 179.700000166893 198.99999976158142 L 179.700000166893 198.99999976158142 A 3.3000000715255737 3.3000000715255737 0 0 1 183.00000023841858 202.299999833107 L 183.00000023841858 217.700000166893 L 183.00000023841858 217.700000166893 A 3.3000000715255737 3.3000000715255737 0 0 1 179.700000166893 221.00000023841858 L 164.299999833107 221.00000023841858 L 164.299999833107 221.00000023841858 A 3.3000000715255737 3.3000000715255737 0 0 1 160.99999976158142 217.700000166893 L 160.99999976158142 202.299999833107 L 160.99999976158142 202.299999833107 A 3.3000000715255737 3.3000000715255737 0 0 1 164.299999833107 198.99999976158142 Z" stroke-opacity="1" stroke-linecap="round" stroke-miterlimit="10" stroke-width="5.5000001192092896" stroke-dasharray=""></path><path fill="none" stroke="none"></path><path fill="none" stroke="rgb(14,62,111)" paint-order="fill stroke markers" d=" M 147.79999947547913 182.49999940395355 L 196.20000052452087 182.49999940395355 L 196.20000052452087 182.49999940395355 A 3.3000000715255737 3.3000000715255737 0 0 1 199.50000059604645 185.79999947547913 L 199.50000059604645 234.20000052452087 L 199.50000059604645 234.20000052452087 A 3.3000000715255737 3.3000000715255737 0 0 1 196.20000052452087 237.50000059604645 L 147.79999947547913 237.50000059604645 L 147.79999947547913 237.50000059604645 A 3.3000000715255737 3.3000000715255737 0 0 1 144.49999940395355 234.20000052452087 L 144.49999940395355 185.79999947547913 L 144.49999940395355 185.79999947547913 A 3.3000000715255737 3.3000000715255737 0 0 1 147.79999947547913 182.49999940395355 Z" stroke-opacity="1" stroke-linecap="round" stroke-miterlimit="10" stroke-width="5.5000001192092896" stroke-dasharray=""></path><path fill="none" stroke="rgb(14,62,111)" paint-order="fill stroke markers" d=" M 153.66666626930237 182.49999940395355 L 153.66666626930237 171.49999916553497" stroke-opacity="1" stroke-linecap="round" stroke-miterlimit="10" stroke-width="5.5000001192092896" stroke-dasharray=""></path><path fill="none" stroke="rgb(14,62,111)" paint-order="fill stroke markers" d=" M 199.50000059604645 210 L 210.50000083446503 210" stroke-opacity="1" stroke-linecap="round" stroke-miterlimit="10" stroke-width="5.5000001192092896" stroke-dasharray=""></path><path fill="none" stroke="rgb(14,62,111)" paint-order="fill stroke markers" d=" M 153.66666626930237 237.50000059604645 L 153.66666626930237 248.50000083446503" stroke-opacity="1" stroke-linecap="round" stroke-miterlimit="10" stroke-width="5.5000001192092896" stroke-dasharray=""></path><path fill="none" stroke="rgb(14,62,111)" paint-order="fill stroke markers" d=" M 144.49999940395355 228.33333373069763 L 133.49999916553497 228.33333373069763" stroke-opacity="1" stroke-linecap="round" stroke-miterlimit="10" stroke-width="5.5000001192092896" stroke-dasharray=""></path><path fill="none" stroke="rgb(14,62,111)" paint-order="fill stroke markers" d=" M 172 182.49999940395355 L 172 171.49999916553497" stroke-opacity="1" stroke-linecap="round" stroke-miterlimit="10" stroke-width="5.5000001192092896" stroke-dasharray=""></path><path fill="none" stroke="rgb(14,62,111)" paint-order="fill stroke markers" d=" M 199.50000059604645 228.33333373069763 L 210.50000083446503 228.33333373069763" stroke-opacity="1" stroke-linecap="round" stroke-miterlimit="10" stroke-width="5.5000001192092896" stroke-dasharray=""></path><path fill="none" stroke="rgb(14,62,111)" paint-order="fill stroke markers" d=" M 190.33333373069763 237.50000059604645 L 190.33333373069763 248.50000083446503" stroke-opacity="1" stroke-linecap="round" stroke-miterlimit="10" stroke-width="5.5000001192092896" stroke-dasharray=""></path><path fill="none" stroke="rgb(14,62,111)" paint-order="fill stroke markers" d=" M 144.49999940395355 210 L 133.49999916553497 210.00000000000003" stroke-opacity="1" stroke-linecap="round" stroke-miterlimit="10" stroke-width="5.5000001192092896" stroke-dasharray=""></path><path fill="none" stroke="rgb(14,62,111)" paint-order="fill stroke markers" d=" M 190.33333373069763 182.49999940395355 L 190.3333337306976 171.49999916553497" stroke-opacity="1" stroke-linecap="round" stroke-miterlimit="10" stroke-width="5.5000001192092896" stroke-dasharray=""></path><path fill="none" stroke="rgb(14,62,111)" paint-order="fill stroke markers" d=" M 199.50000059604645 191.66666626930237 L 210.50000083446503 191.66666626930234" stroke-opacity="1" stroke-linecap="round" stroke-miterlimit="10" stroke-width="5.5000001192092896" stroke-dasharray=""></path><path fill="none" stroke="rgb(14,62,111)" paint-order="fill stroke markers" d=" M 172.00000000000003 237.50000059604645 L 172.00000000000003 248.50000083446503" stroke-opacity="1" stroke-linecap="round" stroke-miterlimit="10" stroke-width="5.5000001192092896" stroke-dasharray=""></path><path fill="none" stroke="rgb(14,62,111)" paint-order="fill stroke markers" d=" M 144.49999940395355 191.6666662693024 L 133.49999916553497 191.6666662693024" stroke-opacity="1" stroke-linecap="round" stroke-miterlimit="10" stroke-width="5.5000001192092896" stroke-dasharray=""></path></g><g><path fill="none" stroke="none"></path><path fill="rgb(245,245,245)" stroke="none" paint-order="stroke fill markers" d=" M 250.70000004768372 165.20000219345093 L 253.29999995231628 165.20000219345093 L 253.29999995231628 165.20000219345093 A 6.499999761581421 6.499999761581421 0 0 1 259.7999997138977 171.70000195503235 L 259.7999997138977 213.30000042915344 L 259.7999997138977 213.30000042915344 A 6.499999761581421 6.499999761581421 0 0 1 253.29999995231628 219.80000019073486 L 250.70000004768372 219.80000019073486 L 250.70000004768372 219.80000019073486 A 6.499999761581421 6.499999761581421 0 0 1 244.2000002861023 213.30000042915344 L 244.2000002861023 171.70000195503235 L 244.2000002861023 171.70000195503235 A 6.499999761581421 6.499999761581421 0 0 1 250.70000004768372 165.20000219345093 Z" fill-opacity="1"></path><path fill="rgb(245,245,245)" stroke="none" paint-order="stroke fill markers" d=" M 236.4000005722046 236.69999957084656 C 236.4000005722046 228.08435778998643 243.38435821913987 221.10000014305115 252 221.10000014305115 C 260.61564178086013 221.10000014305115 267.5999994277954 228.08435778998643 267.5999994277954 236.69999957084656 C 267.5999994277954 245.3156413517067 260.61564178086013 252.29999899864197 252 252.29999899864197 C 243.38435821913987 252.29999899864197 236.4000005722046 245.3156413517067 236.4000005722046 236.69999957084656" fill-opacity="1"></path><path fill="none" stroke="none"></path><path fill="rgb(14,62,111)" stroke="none" paint-order="stroke fill markers" d=" M 252 184.18000149726868 L 252 184.18000149726868 L 252 184.18000149726868 A 2.5999999046325684 2.5999999046325684 0 0 1 254.59999990463257 186.78000140190125 L 254.59999990463257 210.70000052452087 L 254.59999990463257 210.70000052452087 A 2.5999999046325684 2.5999999046325684 0 0 1 252 213.30000042915344 L 252 213.30000042915344 L 252 213.30000042915344 A 2.5999999046325684 2.5999999046325684 0 0 1 249.40000009536743 210.70000052452087 L 249.40000009536743 186.78000140190125 L 249.40000009536743 186.78000140190125 A 2.5999999046325684 2.5999999046325684 0 0 1 252 184.18000149726868 Z" fill-opacity="1"></path><path fill="rgb(14,62,111)" stroke="none" paint-order="stroke fill markers" d=" M 242.900000333786 236.69999957084656 C 242.900000333786 231.67420853201148 246.97420896116492 227.59999990463257 252 227.59999990463257 C 257.02579103883505 227.59999990463257 261.099999666214 231.67420853201148 261.099999666214 236.69999957084656 C 261.099999666214 241.72579060968164 257.02579103883505 245.79999923706055 252 245.79999923706055 C 246.97420896116492 245.79999923706055 242.900000333786 241.72579060968164 242.900000333786 236.69999957084656" fill-opacity="1"></path><path fill="none" stroke="none"></path><path fill="none" stroke="rgb(14,62,111)" paint-order="fill stroke markers" d=" M 252 169.10000205039978 L 252 169.10000205039978 L 252 169.10000205039978 A 5.199999809265137 5.199999809265137 0 0 1 257.19999980926514 174.30000185966492 L 257.19999980926514 210.70000052452087 L 257.19999980926514 210.70000052452087 A 5.199999809265137 5.199999809265137 0 0 1 252 215.900000333786 L 252 215.900000333786 L 252 215.900000333786 A 5.199999809265137 5.199999809265137 0 0 1 246.80000019073486 210.70000052452087 L 246.80000019073486 174.30000185966492 L 246.80000019073486 174.30000185966492 A 5.199999809265137 5.199999809265137 0 0 1 252 169.10000205039978 Z" stroke-opacity="1" stroke-linecap="round" stroke-miterlimit="10" stroke-width="3.8999998569488525" stroke-dasharray=""></path><path fill="none" stroke="rgb(14,62,111)" paint-order="fill stroke markers" d=" M 240.30000042915344 236.69999957084656 C 240.30000042915344 230.23826823520145 245.5382686643549 225 252 225 C 258.4617313356451 225 263.69999957084656 230.23826823520145 263.69999957084656 236.69999957084656 C 263.69999957084656 243.16173090649164 258.4617313356451 248.39999914169312 252 248.39999914169312 C 245.5382686643549 248.39999914169312 240.30000042915344 243.16173090649164 240.30000042915344 236.69999957084656" stroke-opacity="1" stroke-linecap="round" stroke-miterlimit="10" stroke-width="3.8999998569488525" stroke-dasharray=""></path><path fill="none" stroke="rgb(14,62,111)" paint-order="fill stroke markers" d=" M NaN NaN L NaN NaN" stroke-opacity="1" stroke-linecap="round" stroke-miterlimit="10" stroke-width="3.8999998569488525" stroke-dasharray=""></path></g><g><path fill="rgb(14,62,111)" stroke="rgb(14,62,111)" paint-order="fill stroke markers" d=" M 223 133.2000002861023 C 234.19999980926514 144.40000009536743 234.19999980926514 158.39999985694885 223 158.39999985694885 C 211.80000019073486 158.39999985694885 211.80000019073486 144.40000009536743 223 133.2000002861023 L 223 133.2000002861023 L 223 133.2000002861023 Z" fill-opacity="1" stroke-opacity="1" stroke-linecap="round" stroke-miterlimit="10" stroke-width="4.199999928474426" stroke-dasharray=""></path></g></g></svg>