<?xml version="1.0" encoding="UTF-8" standalone="no"?>
<!-- Uploaded to: SVG Repo, www.svgrepo.com, Generator: SVG Repo Mixer Tools -->

<svg
   fill="#000000"
   height="800px"
   width="800px"
   version="1.1"
   id="Capa_1"
   viewBox="0 0 489.809 489.809"
   xml:space="preserve"
   sodipodi:docname="coffee-cup-colors.svg"
   inkscape:version="1.4.2 (f4327f4, 2025-05-13)"
   xmlns:inkscape="http://www.inkscape.org/namespaces/inkscape"
   xmlns:sodipodi="http://sodipodi.sourceforge.net/DTD/sodipodi-0.dtd"
   xmlns="http://www.w3.org/2000/svg"
   xmlns:svg="http://www.w3.org/2000/svg"><defs
   id="defs8" /><sodipodi:namedview
   id="namedview8"
   pagecolor="#ffffff"
   bordercolor="#000000"
   borderopacity="0.25"
   inkscape:showpageshadow="2"
   inkscape:pageopacity="0.0"
   inkscape:pagecheckerboard="0"
   inkscape:deskcolor="#d1d1d1"
   inkscape:zoom="0.96625"
   inkscape:cx="400"
   inkscape:cy="400"
   inkscape:window-width="1920"
   inkscape:window-height="991"
   inkscape:window-x="-9"
   inkscape:window-y="-9"
   inkscape:window-maximized="1"
   inkscape:current-layer="Capa_1" />
<g
   id="g8">
	<g
   id="g7">
		<g
   id="g6">
			<path
   d="M17.1,245.904c36.9-23.3,109.2-38.1,188.9-38.1s152,14.8,188.9,38.1c10.9-6.6,17.1-14,17.1-21.8     c0-29.9-92.1-54.4-206-54.4s-206,24.5-206,54.4C0,231.904,6.2,239.304,17.1,245.904z"
   id="path1"
   style="fill:#800000" />
			<path
   d="M39.6,256.404c37.3,13.6,98,22.2,166,22.2s128.7-8.9,166-22.2c-36.5-17.5-99.1-28.4-166-28.4     C138.8,228.004,76.2,238.904,39.6,256.404z"
   id="path2"
   style="fill:#504416" />
			<path
   d="M206,106.704c5.4,0,10.1-4.7,10.1-10.1v-76.6c0-5.4-4.7-10.1-10.1-10.1c-5.4,0-10.1,4.7-10.1,10.1v76.6     C195.9,102.404,200.6,106.704,206,106.704z"
   id="path3"
   style="fill:#999999" />
			<path
   d="M131,132.404c5.4,0,10.1-4.7,10.1-10.1v-76.6c0-5.4-4.7-10.1-10.1-10.1s-10.1,4.6-10.1,10.1v76.6     C120.9,127.704,125.6,132.404,131,132.404z"
   id="path4"
   style="fill:#999999" />
			<path
   d="M280.7,132.404c5.4,0,10.1-4.7,10.1-10.1v-76.6c0-5.4-4.7-10.1-10.1-10.1s-10.1,4.7-10.1,10.1v76.6     C270.6,127.704,275.2,132.404,280.7,132.404z"
   id="path5"
   style="fill:#999999" />
			<path
   d="M409.3,265.304c0.4-1.9,0.4-3.9,0.8-5.8c-43.5,29.9-140.3,39.3-204.1,39.3s-160.9-9-204.1-39.3     c13.6,124.4,99.9,220.4,204.1,220.4c45.1,0,86.7-17.9,120.5-48.2c0,0,160.7-26.8,163.3-127.5     C490.2,287.504,477.2,233.604,409.3,265.304z M353.4,402.904c23.7-29.9,41.6-67.3,50.9-108.9c56.6-42,66.2,0,65.3,9.7     C462.6,380.204,353.4,402.904,353.4,402.904z"
   id="path6"
   style="fill:#800000" />
		</g>
	</g>
</g>
<path
   style="fill:#800000;stroke-width:1.03493"
   d="m 317.20569,782.79066 c -2.84605,-0.23684 -10.5304,-1.14614 -17.07632,-2.02067 C 154.0876,761.25898 34.803953,625.2082 6.6646556,446.05433 3.1129662,423.44187 2.8161149,424.68016 10.647982,429.43819 31.953804,442.38192 62.65967,454.1752 98.318241,463.10992 174.25351,482.1365 287.89014,491.77348 384.99353,487.42149 509.9967,481.81909 610.43927,460.7963 662.07151,429.42862 l 6.49253,-3.94434 v 4.1617 c 0,2.28893 0.34928,4.00646 0.77619,3.81672 8.38332,-3.72592 25.70106,-9.9734 33.32978,-12.02392 8.43125,-2.26623 12.15284,-2.66658 25.40244,-2.73265 13.786,-0.0687 16.38707,0.20525 23.23387,2.44743 28.18672,9.23052 47.66728,39.87676 47.65459,74.96879 -0.024,66.29246 -47.47189,124.74211 -134.97684,166.27387 -34.20845,16.23608 -78.84615,31.17491 -118.92423,39.80018 l -12.24935,2.6362 -8.44923,7.03576 c -45.14884,37.59585 -94.66387,60.4514 -148.30027,68.45366 -13.96493,2.0835 -46.88881,3.46445 -58.8553,2.46864 z M 587.38594,656.06512 c 41.52625,-10.86543 84.38303,-30.84505 115.14297,-53.67909 12.71235,-9.43677 33.64207,-30.74157 41.23314,-41.97206 13.3255,-19.71422 20.42003,-38.54784 23.59433,-62.63508 0.34198,-2.59507 -0.0555,-8.19197 -0.89246,-12.56633 -2.78866,-14.57501 -10.50329,-25.87575 -21.53833,-31.55035 -7.75275,-3.98672 -20.78522,-4.58142 -32.98544,-1.50519 -11.05008,2.78622 -28.53888,11.36019 -41.74043,20.46346 l -10.266,7.07902 -3.47036,13.84419 c -14.09064,56.21121 -38.93796,109.04889 -72.93599,155.09797 -3.8873,5.2652 -6.4579,9.57309 -5.71243,9.57309 0.74546,0 5.05241,-0.96734 9.571,-2.14963 z"
   id="path8"
   transform="scale(0.61226125)" /><path
   style="fill:#d40000"
   d="m 206.35297,213.2939 c -1.77106,-1.07997 -4.33251,-3.52325 -5.6921,-5.42952 l -2.472,-3.46593 V 137.04751 69.696575 l 2.89956,-3.80151 c 1.59475,-2.090831 4.2495,-4.499598 5.89944,-5.352816 6.92457,-3.58083 16.54797,-0.431894 20.57447,6.732307 2.16879,3.858836 2.19186,4.594034 2.19186,69.838014 0,73.49978 0.27199,70.60879 -7.11519,75.6285 -4.63044,3.14647 -11.64231,3.38449 -16.28604,0.55283 z"
   id="path9"
   transform="scale(0.61226125)" /><path
   style="fill:#d40000"
   d="m 329.62484,171.77305 c -2.27685,-1.15136 -5.07115,-3.36315 -6.20957,-4.9151 -2.01255,-2.74359 -2.07764,-4.68421 -2.35084,-70.082786 -0.20357,-48.730712 0.0454,-68.049023 0.90373,-70.121192 1.67829,-4.05176 7.49948,-8.839823 11.70681,-9.629122 7.52353,-1.411424 16.43193,4.738222 18.25662,12.60292 1.21159,5.222114 1.21385,125.9396 0.002,131.16047 -1.55187,6.68825 -9.27864,13.08125 -15.80767,13.07899 -1.299,-4.5e-4 -4.2247,-0.94283 -6.50154,-2.09418 z"
   id="path10"
   transform="scale(0.61226125)" /><path
   style="fill:#d40000"
   d="m 450.44332,213.20093 c -1.85514,-1.13109 -4.29841,-3.57436 -5.42951,-5.4295 -1.99611,-3.2739 -2.05664,-5.34302 -2.06039,-70.43602 -0.004,-74.473657 -0.34705,-70.75225 6.97464,-75.727464 7.29995,-4.960443 17.36764,-2.729237 22.00509,4.876773 1.9964,3.274358 2.05653,5.339865 2.05653,70.643351 0,65.3035 -0.0601,67.369 -2.05653,70.64336 -4.38933,7.19905 -14.42774,9.73531 -21.48983,5.4295 z"
   id="path11"
   transform="scale(0.61226125)" /><path
   style="fill:#550000;stroke-width:1.03493"
   d="M 317.20569,782.79066 C 260.19925,778.04675 207.20956,757.22671 159.9611,721.00809 80.059397,659.75893 24.609534,560.30361 6.6646556,446.05433 3.0920671,423.30881 2.7796754,424.54563 10.849664,429.48501 84.280048,474.42937 260.86811,497.82407 428.46054,484.81084 533.35533,476.66597 616.93039,456.8528 662.07151,429.42862 l 6.49253,-3.94434 v 4.1617 c 0,2.28893 0.34928,4.00646 0.77619,3.81672 8.38332,-3.72592 25.70106,-9.9734 33.32978,-12.02392 8.43125,-2.26623 12.15284,-2.66658 25.40244,-2.73265 13.786,-0.0687 16.38707,0.20525 23.23387,2.44743 28.23064,9.24491 47.6673,39.82208 47.65459,74.96879 -0.0239,65.97934 -47.17025,124.38355 -133.72927,165.66173 -35.077,16.72749 -79.44108,31.64658 -120.1718,40.41232 l -12.24935,2.6362 -8.44923,7.03576 c -45.19752,37.63639 -94.60604,60.44278 -148.30027,68.45366 -13.96493,2.0835 -46.88881,3.46445 -58.8553,2.46864 z m 279.24998,-129.3507 c 30.02175,-8.59037 68.51145,-25.90991 92.28948,-41.52831 42.51445,-27.92528 69.01044,-63.01645 76.39279,-101.17426 2.77462,-14.34142 2.93318,-17.50428 1.27718,-25.47611 -5.82248,-28.02891 -25.98737,-40.26528 -54.54181,-33.09681 -10.65175,2.67408 -28.05662,11.24478 -41.68319,20.52613 l -10.27559,6.99892 -3.47742,13.97154 c -13.6775,54.95362 -38.7003,108.29833 -72.40224,154.35032 -3.59952,4.91856 -6.54457,9.26346 -6.54457,9.65533 0,0.93696 4.15652,0.0106 18.96537,-4.22675 z"
   id="path12"
   transform="scale(0.61226125)" /><path
   style="fill:#550000;stroke-width:1.03493"
   d="M 22.237156,397.02907 C 4.058609,384.74153 -3.2667812,368.65996 3.2152372,355.2699 19.33885,321.96296 106.85103,293.57459 227.16688,282.62147 c 90.59761,-8.24768 185.96762,-6.0777 271.04142,6.16708 67.08836,9.65612 121.6607,25.97377 150.05827,44.86886 29.94476,19.92457 31.72377,40.95592 5.18389,61.28383 l -7.86831,6.02664 -4.29173,-2.39706 C 612.56551,382.527 581.68182,371.0091 541.26779,361.26795 471.9041,344.54895 395.90572,337.52681 307.11514,339.63258 224.78407,341.58516 146.67342,353.804 87.451488,373.99455 c -20.21118,6.8906 -30.32666,11.17746 -46.850363,19.85479 -6.98374,3.66746 -12.811432,6.66812 -12.950425,6.66812 -0.138993,0 -2.575088,-1.56978 -5.413544,-3.48839 z"
   id="path13"
   transform="scale(0.61226125)" /></svg>
