<svg version="1.1" xmlns="http://www.w3.org/2000/svg" xmlns:xlink="http://www.w3.org/1999/xlink" width="280" height="280" viewBox="0 0 280 280"><defs></defs><g><path fill="rgb(79,166,247)" stroke="rgb(63,133,198)" paint-order="fill stroke markers" d=" M 0 280 C 0 243.68430451482268 -11.666666666666666 91.92614996830314 0 62.105827088936095 C 11.666666666666666 32.285504209569055 46.66666666666667 102.08395705461263 70 101.07806272379777 C 93.33333333333333 100.07216839298292 116.66666666666667 55.18286623386236 140 56.07046110404698 C 163.33333333333334 56.95805597423159 186.66666666666666 107.15892945313354 210 106.40363194490546 C 233.33333333333334 105.64833443667737 268.3333333333333 22.605948045496056 280 51.53867605467848 C 291.6666666666667 80.47140406386092 280 241.92311267577975 280 280 C 280 318.07688732422025 326.6666666666667 280 280 280 C 233.33333333333334 280 46.666666666666664 280 0 280 L 0 280 Z" fill-opacity="1" stroke-opacity="1" stroke-linecap="round" stroke-linejoin="round" stroke-miterlimit="10" stroke-width="5" stroke-dasharray=""></path><path fill="rgb(244,197,66)" stroke="rgb(195,158,53)" paint-order="fill stroke markers" d=" M 0 280 C 0 256.6666666666667 -6.666666666666667 162.70666716551182 0 140 C 6.666666666666667 117.29333283448818 26.666666666666664 145.0034464427534 40 143.75999700692913 C 53.333333333333336 142.51654757110487 66.66666666666667 131.32534678945248 80 132.53930338505435 C 93.33333333333333 133.75325998065622 106.66666666666667 152.2090555152246 120 151.0437365805403 C 133.33333333333334 149.878417645856 146.66666666666666 124.44908627890958 160 125.54738977694856 C 173.33333333333334 126.64569327498755 186.66666666666666 158.6475247279091 200 157.63355756877422 C 213.33333333333334 156.61959040963936 226.66666666666666 118.54994686972285 240 119.46358682213942 C 253.33333333333334 120.377226774556 273.3333333333333 136.3593284202969 280 163.11539728327367 C 286.6666666666667 189.87146614625044 280 260.5192328805456 280 280 C 280 299.4807671194544 326.6666666666667 280 280 280 C 233.33333333333334 280 46.666666666666664 280 0 280 L 0 280 Z" fill-opacity="1" stroke-opacity="1" stroke-linecap="round" stroke-linejoin="round" stroke-miterlimit="10" stroke-width="5" stroke-dasharray=""></path><path fill="rgb(211,91,91)" stroke="rgb(169,73,73)" paint-order="fill stroke markers" d=" M -5 295 C -5 275 -14.6 186.69952207785633 -5 175 C 4.6 163.30047792214367 33.400000000000006 224.67196403756458 52.6 224.80286753286194 C 71.8 224.9337710281593 91 176.04516353606016 110.2 175.78542097178422 C 129.4 175.52567840750828 148.60000000000002 222.85992680935308 167.8 223.24441214720628 C 187 223.62889748505947 206.20000000000002 178.59549754687552 225.4 178.09233299890343 C 244.6 177.58916845093134 273.4 200.74081369252426 283 220.22542485937367 C 292.6 239.7100360262231 283 282.5375708098956 283 295 C 283 307.4624291901044 331 295 283 295 C 235 295 43 295 -5 295 L -5 295 Z" fill-opacity="1" stroke-opacity="1" stroke-linecap="round" stroke-linejoin="round" stroke-miterlimit="10" stroke-width="5" stroke-dasharray=""></path></g></svg>