<svg version="1.1" xmlns="http://www.w3.org/2000/svg" xmlns:xlink="http://www.w3.org/1999/xlink" width="140" height="110" viewBox="0 0 140 110"><defs></defs><g><g><path fill="rgb(0,143,92)" stroke="none" paint-order="stroke fill markers" d=" M 5 0 L 105 0 L 105 10 L 5 10 L 5 0 Z" fill-opacity="1"></path><path fill="rgb(0,143,92)" stroke="none" paint-order="stroke fill markers" d=" M 0 5 C 0 2.238576251 2.238576251 0 5 0 C 7.761423749 0 10 2.238576251 10 5 C 10 7.761423749 7.761423749 10 5 10 C 2.238576251 10 0 7.761423749 0 5" fill-opacity="1"></path><path fill="rgb(0,143,92)" stroke="none" paint-order="stroke fill markers" d=" M 100 5 C 100 2.238576251 102.238576251 0 105 0 C 107.761423749 0 110 2.238576251 110 5 C 110 7.761423749 107.761423749 10 105 10 C 102.238576251 10 100 7.761423749 100 5" fill-opacity="1"></path></g><g><path fill="rgb(0,143,92)" stroke="none" paint-order="stroke fill markers" d=" M 109.28746462856272 2.4275212228623677 L 139.2874646285627 52.42752122286236 L 130.71253537143727 57.572478777137626 L 100.71253537143728 7.572478777137633 L 109.28746462856272 2.4275212228623677 Z" fill-opacity="1"></path><path fill="rgb(0,143,92)" stroke="none" paint-order="stroke fill markers" d=" M 102.42752122286237 0.7125353714372791 C 104.79542255252449 -0.7082054263599886 107.86672383076545 0.059619893200255625 109.28746462856272 2.4275212228623677 C 110.70820542636 4.79542255252448 109.94038010679975 7.866723830765453 107.57247877713763 9.28746462856272 C 105.20457744747551 10.708205426359989 102.13327616923455 9.940380106799743 100.71253537143728 7.572478777137633 C 99.29179457364 5.20457744747552 100.05961989320025 2.1332761692345463 102.42752122286237 0.7125353714372791" fill-opacity="1"></path><path fill="rgb(0,143,92)" stroke="none" paint-order="stroke fill markers" d=" M 132.42752122286237 50.712535371437276 C 134.79542255252449 49.29179457364001 137.86672383076544 50.05961989320025 139.2874646285627 52.42752122286236 C 140.70820542636 54.79542255252448 139.94038010679975 57.86672383076545 137.57247877713763 59.28746462856272 C 135.20457744747551 60.70820542635998 132.13327616923453 59.94038010679974 130.71253537143727 57.572478777137626 C 129.29179457364 55.204577447475515 130.05961989320025 52.13327616923454 132.42752122286237 50.712535371437276" fill-opacity="1"></path></g><g><path fill="rgb(0,143,92)" stroke="none" paint-order="stroke fill markers" d=" M 9.28746462856272 2.4275212228623677 L 39.28746462856272 52.42752122286236 L 30.712535371437273 57.572478777137626 L 0.7125353714372791 7.572478777137633 L 9.28746462856272 2.4275212228623677 Z" fill-opacity="1"></path><path fill="rgb(0,143,92)" stroke="none" paint-order="stroke fill markers" d=" M 2.4275212228623677 0.7125353714372791 C 4.79542255252448 -0.7082054263599886 7.866723830765453 0.059619893200255625 9.28746462856272 2.4275212228623677 C 10.708205426359989 4.79542255252448 9.940380106799743 7.866723830765453 7.572478777137633 9.28746462856272 C 5.20457744747552 10.708205426359989 2.1332761692345463 9.940380106799743 0.7125353714372791 7.572478777137633 C -0.7082054263599886 5.20457744747552 0.059619893200255625 2.1332761692345463 2.4275212228623677 0.7125353714372791" fill-opacity="1"></path><path fill="rgb(0,143,92)" stroke="none" paint-order="stroke fill markers" d=" M 32.42752122286236 50.712535371437276 C 34.79542255252447 49.29179457364001 37.866723830765444 50.05961989320025 39.28746462856272 52.42752122286236 C 40.70820542635998 54.79542255252448 39.940380106799736 57.86672383076545 37.572478777137626 59.28746462856272 C 35.204577447475515 60.70820542635998 32.13327616923454 59.94038010679974 30.712535371437273 57.572478777137626 C 29.291794573640004 55.204577447475515 30.05961989320025 52.13327616923454 32.42752122286236 50.712535371437276" fill-opacity="1"></path></g><g><path fill="rgb(0,143,92)" stroke="none" paint-order="stroke fill markers" d=" M 39.287464628562724 57.57247877713763 L 9.287464628562738 107.57247877713763 L 0.7125353714372906 102.42752122286237 L 30.712535371437276 52.42752122286237 L 39.287464628562724 57.57247877713763 Z" fill-opacity="1"></path><path fill="rgb(0,143,92)" stroke="none" paint-order="stroke fill markers" d=" M 37.57247877713763 50.712535371437276 C 39.94038010679974 52.13327616923455 40.70820542635999 55.20457744747552 39.287464628562724 57.57247877713763 C 37.86672383076545 59.94038010679974 34.79542255252448 60.70820542635999 32.42752122286237 59.287464628562724 C 30.059619893200257 57.86672383076545 29.29179457364001 54.79542255252448 30.712535371437276 52.42752122286237 C 32.13327616923455 50.05961989320026 35.20457744747552 49.29179457364001 37.57247877713763 50.712535371437276" fill-opacity="1"></path><path fill="rgb(0,143,92)" stroke="none" paint-order="stroke fill markers" d=" M 7.572478777137647 100.71253537143727 C 9.940380106799758 102.13327616923453 10.708205426360003 105.20457744747551 9.287464628562738 107.57247877713763 C 7.866723830765466 109.94038010679975 4.795422552524492 110.70820542636 2.4275212228623815 109.28746462856273 C 0.059619893200270724 107.86672383076547 -0.7082054263599744 104.79542255252449 0.7125353714372906 102.42752122286237 C 2.1332761692345628 100.05961989320025 5.204577447475536 99.29179457364 7.572478777137647 100.71253537143727" fill-opacity="1"></path></g><g><path fill="rgb(0,143,92)" stroke="none" paint-order="stroke fill markers" d=" M 5 100 L 105 100 L 105 110 L 5 110 L 5 100 Z" fill-opacity="1"></path><path fill="rgb(0,143,92)" stroke="none" paint-order="stroke fill markers" d=" M 0 105 C 0 102.238576251 2.238576251 100 5 100 C 7.761423749 100 10 102.238576251 10 105 C 10 107.761423749 7.761423749 110 5 110 C 2.238576251 110 0 107.761423749 0 105" fill-opacity="1"></path><path fill="rgb(0,143,92)" stroke="none" paint-order="stroke fill markers" d=" M 100 105 C 100 102.238576251 102.238576251 100 105 100 C 107.761423749 100 110 102.238576251 110 105 C 110 107.761423749 107.761423749 110 105 110 C 102.238576251 110 100 107.761423749 100 105" fill-opacity="1"></path></g><g><path fill="rgb(0,143,92)" stroke="none" paint-order="stroke fill markers" d=" M 100.71253537143728 102.42752122286237 L 130.71253537143727 52.427521222862374 L 139.2874646285627 57.57247877713764 L 109.28746462856272 107.57247877713763 L 100.71253537143728 102.42752122286237 Z" fill-opacity="1"></path><path fill="rgb(0,143,92)" stroke="none" paint-order="stroke fill markers" d=" M 102.42752122286237 109.28746462856272 C 100.05961989320025 107.86672383076545 99.29179457364 104.79542255252449 100.71253537143728 102.42752122286237 C 102.13327616923455 100.05961989320025 105.20457744747551 99.29179457364 107.57247877713763 100.71253537143728 C 109.94038010679975 102.13327616923455 110.70820542636 105.20457744747551 109.28746462856272 107.57247877713763 C 107.86672383076545 109.94038010679975 104.79542255252449 110.70820542636 102.42752122286237 109.28746462856272" fill-opacity="1"></path><path fill="rgb(0,143,92)" stroke="none" paint-order="stroke fill markers" d=" M 132.42752122286237 59.287464628562724 C 130.05961989320025 57.86672383076546 129.29179457364 54.795422552524485 130.71253537143727 52.427521222862374 C 132.13327616923453 50.05961989320026 135.20457744747551 49.29179457364002 137.57247877713763 50.71253537143728 C 139.94038010679975 52.13327616923455 140.70820542636 55.20457744747552 139.2874646285627 57.57247877713764 C 137.86672383076544 59.94038010679975 134.79542255252449 60.70820542635999 132.42752122286237 59.287464628562724" fill-opacity="1"></path></g></g></svg>