<svg version="1.1" xmlns="http://www.w3.org/2000/svg" xmlns:xlink="http://www.w3.org/1999/xlink" width="140" height="140" viewBox="0 0 140 140"><defs></defs><g><path fill="none" stroke="none"></path><path fill="rgb(0,179,116)" stroke="none" paint-order="stroke fill markers" d=" M 7 2 L 63 2 L 63 2 A 5 5 0 0 1 68 7 L 68 39.666666666666664 L 68 39.666666666666664 A 5 5 0 0 1 63 44.666666666666664 L 7 44.666666666666664 L 7 44.666666666666664 A 5 5 0 0 1 2 39.666666666666664 L 2 7 L 2 7.000000000000001 A 5 5 0 0 1 7 2 Z" fill-opacity="1"></path><path fill="none" stroke="none"></path><path fill="rgb(0,165,107)" stroke="none" paint-order="stroke fill markers" d=" M 7 48.666666666666664 L 63 48.666666666666664 L 63 48.666666666666664 A 5 5 0 0 1 68 53.666666666666664 L 68 86.33333333333333 L 68 86.33333333333333 A 5 5 0 0 1 63 91.33333333333333 L 7 91.33333333333333 L 7 91.33333333333333 A 5 5 0 0 1 2 86.33333333333333 L 2 53.666666666666664 L 2 53.666666666666664 A 5 5 0 0 1 7 48.666666666666664 Z" fill-opacity="1"></path><path fill="none" stroke="none"></path><path fill="rgb(0,152,99)" stroke="none" paint-order="stroke fill markers" d=" M 7 95.33333333333333 L 63 95.33333333333333 L 63 95.33333333333333 A 5 5 0 0 1 68 100.33333333333333 L 68 133 L 68 133 A 5 5 0 0 1 63 138 L 7 138 L 7 138 A 5 5 0 0 1 2 133 L 2 100.33333333333333 L 2 100.33333333333333 A 5 5 0 0 1 7 95.33333333333333 Z" fill-opacity="1"></path><path fill="none" stroke="none"></path><path fill="rgb(0,165,107)" stroke="none" paint-order="stroke fill markers" d=" M 77 2 L 133 2 L 133 2 A 5 5 0 0 1 138 7 L 138 39.666666666666664 L 138 39.666666666666664 A 5 5 0 0 1 133 44.666666666666664 L 77 44.666666666666664 L 77 44.666666666666664 A 5 5 0 0 1 72 39.666666666666664 L 72 7 L 72 7.000000000000001 A 5 5 0 0 1 77 2 Z" fill-opacity="1"></path><path fill="none" stroke="none"></path><path fill="rgb(0,152,99)" stroke="none" paint-order="stroke fill markers" d=" M 77 48.666666666666664 L 133 48.666666666666664 L 133 48.666666666666664 A 5 5 0 0 1 138 53.666666666666664 L 138 86.33333333333333 L 138 86.33333333333333 A 5 5 0 0 1 133 91.33333333333333 L 77 91.33333333333333 L 77 91.33333333333333 A 5 5 0 0 1 72 86.33333333333333 L 72 53.666666666666664 L 72 53.666666666666664 A 5 5 0 0 1 77 48.666666666666664 Z" fill-opacity="1"></path><path fill="none" stroke="none"></path><path fill="rgb(0,138,90)" stroke="none" paint-order="stroke fill markers" d=" M 77 95.33333333333333 L 133 95.33333333333333 L 133 95.33333333333333 A 5 5 0 0 1 138 100.33333333333333 L 138 133 L 138 133 A 5 5 0 0 1 133 138 L 77 138 L 77 138 A 5 5 0 0 1 72 133 L 72 100.33333333333333 L 72 100.33333333333333 A 5 5 0 0 1 77 95.33333333333333 Z" fill-opacity="1"></path></g></svg>