<svg version="1.1" xmlns="http://www.w3.org/2000/svg" xmlns:xlink="http://www.w3.org/1999/xlink" width="140" height="140" viewBox="0 0 140 140"><defs></defs><g><g><path fill="none" stroke="none"></path><path fill="rgb(197,215,106)" stroke="none" paint-order="stroke fill markers" d=" M 5 80 L 22.5 80 L 22.5 80 A 5 5 0 0 1 27.5 85 L 27.5 140 L 0 140 L 0 85 L 0 85 A 5 5 0 0 1 5 80 Z" fill-opacity="1"></path><path fill="none" stroke="none"></path><path fill="rgb(204,220,109)" stroke="none" paint-order="stroke fill markers" d=" M 42.5 40 L 60 40 L 60 40 A 5 5 0 0 1 65 45 L 65 140 L 37.5 140 L 37.5 45 L 37.5 45 A 5 5 0 0 1 42.5 40 Z" fill-opacity="1"></path><path fill="none" stroke="none"></path><path fill="rgb(210,226,113)" stroke="none" paint-order="stroke fill markers" d=" M 80 0 L 97.5 0 L 97.5 0 A 5 5 0 0 1 102.5 5 L 102.5 140 L 75 140 L 75 5 L 75 5.000000000000001 A 5 5 0 0 1 80 0 Z" fill-opacity="1"></path><path fill="none" stroke="none"></path><path fill="rgb(217,231,116)" stroke="none" paint-order="stroke fill markers" d=" M 117.5 40 L 135 40 L 135 40 A 5 5 0 0 1 140 45 L 140 140 L 112.5 140 L 112.5 45 L 112.5 45 A 5 5 0 0 1 117.5 40 Z" fill-opacity="1"></path></g></g></svg>